<?xml version="1.0" encoding="utf-8"?>
<!-- Generator: Adobe Illustrator 27.5.0, SVG Export Plug-In . SVG Version: 6.00 Build 0)  -->
<svg version="1.1" xmlns="http://www.w3.org/2000/svg" xmlns:xlink="http://www.w3.org/1999/xlink" x="0px" y="0px"
	 viewBox="0 0 3710 3710" style="enable-background:new 0 0 3710 3710;" xml:space="preserve">
<g id="Background">
	<g>
		<g>
			<rect style="fill:#FFFFFF;" width="3710" height="3710"/>
		</g>
	</g>
</g>
<g id="Illustration">
	<g>
		<path style="fill:#F4F7FA;" d="M491.721,2059.034c76.319,499.541,389.224,1113.263,1007.405,1177.49
			c0,0,469.352,57.089,932.029-29.436c274.6-51.352,515.383-204.217,667.741-423.922
			c152.359-219.705,203.252-487.606,141.487-743.016c-40.116-165.891-67.224-337.582-59.784-508.045
			c12.948-296.675,5.499-573.599-282.418-750.528c-257.076-157.978-580.61-297.308-889.265-321.712
			c-209.76-16.585-444.993,10.253-647.163,64.864C331.452,803.046,415.402,1559.493,491.721,2059.034z"/>
		<g>
			<g>
				<g>
					<defs>
						<path id="SVGID_1_" d="M2193.564,2764.711c49.877-92.426,108.757-235.145,99.855-406.168
							c-11.676-224.294-129.678-300.203-236.349-650.919c-67.448-221.755-112.284-377.192-28.872-496.195
							c65.365-93.257,201.663-152.973,306.863-121.897c87.47,25.839,163.683,117.472,201.314,188.48
							c30.669,57.871,37.331,105.102,83.435,125.587c47.117,20.934,79.851-10.757,121.766,2.405
							c85.003,26.692,100.179,204.068,102.632,232.736c27.282,318.891-178.159,608.714-269.296,734.056
							C2499.556,2476.431,2377.93,2621.616,2193.564,2764.711z"/>
					</defs>
					
						<linearGradient id="SVGID_00000178189998790137666790000001397373271677726600_" gradientUnits="userSpaceOnUse" x1="2340.5479" y1="1436.2677" x2="2793.4167" y2="3337.271">
						<stop  offset="0" style="stop-color:#FCB148"/>
						<stop  offset="0.0521" style="stop-color:#FDBA46"/>
						<stop  offset="0.1424" style="stop-color:#FFC244"/>
						<stop  offset="0.3183" style="stop-color:#FFC444"/>
						<stop  offset="0.4849" style="stop-color:#FDB946"/>
						<stop  offset="0.7754" style="stop-color:#F99C4D"/>
						<stop  offset="0.8658" style="stop-color:#F8924F"/>
						<stop  offset="1" style="stop-color:#F8924F"/>
					</linearGradient>
					
						<use xlink:href="#SVGID_1_"  style="overflow:visible;fill:url(#SVGID_00000178189998790137666790000001397373271677726600_);"/>
					<clipPath id="SVGID_00000039851123421243134040000015314460130842297749_">
						<use xlink:href="#SVGID_1_"  style="overflow:visible;"/>
					</clipPath>
					<g style="opacity:0.5;clip-path:url(#SVGID_00000039851123421243134040000015314460130842297749_);">
						<g>
							<path style="fill:#FFFFFF;" d="M2129.067,2847.337l-4.653-5.69c193.618-158.322,419.619-405.327,396.75-682.955
								c-8.408-102.096-49.274-197.178-105.833-328.777c-45.153-105.061-86.633-175.456-123.227-237.563
								c-47.86-81.215-85.66-145.365-108.87-249.031c-23.555-105.19-23.784-217.498-0.689-333.801l7.209,1.432
								c-22.894,115.293-22.675,226.577,0.654,330.762c22.959,102.537,60.5,166.247,108.03,246.906
								c36.709,62.296,78.315,132.902,123.65,238.391c54.695,127.266,97.899,227.787,106.407,331.078
								c10.878,132.094-33.632,270.138-132.302,410.294C2329.564,2663.028,2239.689,2756.882,2129.067,2847.337z"/>
						</g>
						<g>
							<path style="fill:#FFFFFF;" d="M2387.121,1755.191l-4.136-0.368c-0.826-0.074-83.524-7.931-180.227-57.964
								c-89.25-46.176-209.167-138.75-273.613-317.54l6.918-2.491c63.635,176.545,181.99,267.928,270.073,313.501
								c83.208,43.051,155.642,54.437,173.37,56.695c-6.15-215.205,57.869-372.84,112.873-467.403
								c60.048-103.239,122.75-155.809,123.378-156.328l4.689,5.661c-0.617,0.512-62.493,52.443-121.888,154.666
								c-54.796,94.307-118.632,251.952-111.573,467.422L2387.121,1755.191z"/>
						</g>
						<g>
							<path style="fill:#FFFFFF;" d="M2500.626,2042.63l-2.129-1.616c-1.055-0.799-106.756-80.639-228.385-139.934
								c-120.901-58.941-344.597-18.751-346.841-18.336l-1.328-7.23c2.269-0.418,228.342-41.026,351.393,18.958
								c112.676,54.931,211.73,127.383,227.448,139.072c200.658-143.61,264.627-746.938,265.252-753.038l7.317,0.75
								c-0.158,1.536-16.217,155.665-57.277,325.323c-55.266,228.338-127.015,374.533-213.256,434.525L2500.626,2042.63z"/>
						</g>
						<g>
							<path style="fill:#FFFFFF;" d="M2421.248,2530.705l1.454-7.182c23.993-118.361-19.135-219.85-128.192-301.645
								c-81.7-61.28-171.787-87.812-172.688-88.073l2.046-7.062c0.912,0.264,92.122,27.102,174.896,89.132
								c107.829,80.81,153.545,185.034,132.54,301.819c24.524-12.328,114.719-59.793,220.21-141.312
								c113.724-87.884,269-234.461,362.906-433.674l182.449-387.055l6.649,3.134l-182.449,387.055
								c-94.56,200.603-250.798,348.081-365.215,436.477c-123.938,95.75-226.952,144.777-227.979,145.26L2421.248,2530.705z"/>
						</g>
					</g>
				</g>
			</g>
			<g>
				<g>
					<defs>
						<path id="SVGID_00000055671812789533631710000004241712898108096397_" d="M2212.777,2739.507
							c164.353,22.019,376.866,26.619,589.261-38.702c54.204-16.67,389.05-119.649,369.982-268.619
							c-6.717-52.475-51.676-66.34-61.882-136.342c-12.094-82.947,43.287-116.573,90.84-211.989
							c28.375-56.935,111.414-223.555,19.225-333.369c-55.09-65.621-170.26-107.99-263.243-98.385
							c-136.386,14.088-198.31,137.231-299.483,347.403c-89.686,186.31-79.065,236.191-145.989,369.224
							C2461.819,2467.461,2374.945,2601.046,2212.777,2739.507z"/>
					</defs>
					
						<linearGradient id="SVGID_00000085246397144420547860000007092307069898946711_" gradientUnits="userSpaceOnUse" x1="3053.3369" y1="1633.0671" x2="2671.1675" y2="2658.8923">
						<stop  offset="0" style="stop-color:#FF9085"/>
						<stop  offset="1" style="stop-color:#FB6FBB"/>
					</linearGradient>
					
						<use xlink:href="#SVGID_00000055671812789533631710000004241712898108096397_"  style="overflow:visible;fill:url(#SVGID_00000085246397144420547860000007092307069898946711_);"/>
					<clipPath id="SVGID_00000044177101705725501700000008804376171234990778_">
						<use xlink:href="#SVGID_00000055671812789533631710000004241712898108096397_"  style="overflow:visible;"/>
					</clipPath>
					<g style="opacity:0.5;clip-path:url(#SVGID_00000044177101705725501700000008804376171234990778_);">
						<g>
							<path style="fill:#FFFFFF;" d="M1915.966,2784.709c-137.011,0-275.945-28.364-414.388-84.727l2.772-6.811
								c173.959,70.822,348.657,97.156,519.191,78.256c610.254-67.6,910.649-712.662,988.181-908.756
								c43.99-111.256,54.501-239.304,31.245-380.589l7.252-1.196c23.479,142.617,12.827,271.978-31.661,384.488
								c-63.807,161.384-180.062,394.908-371.548,590.921c-184.234,188.596-393.727,297.08-622.658,322.44
								C1988.385,2782.72,1952.244,2784.709,1915.966,2784.709z"/>
						</g>
						<g>
							<path style="fill:#FFFFFF;" d="M2858.204,2180.086l-1.738-2.811c-0.388-0.628-39.261-64.049-65.408-156.642
								c-24.154-85.558-42.13-214.315,9.438-341.847l6.814,2.757c-50.753,125.526-33.036,252.482-9.234,336.882
								c22.75,80.675,55.234,138.919,62.953,152.143c377.302-182.494,406.813-442.163,406.842-517.561
								c0.004-2.337,0.007-3.175,0.094-3.795l7.288,0.942c-0.036,0.431-0.029,1.393-0.029,2.856
								c-0.029,76.685-29.974,341.222-414.04,525.644L2858.204,2180.086z"/>
						</g>
						<g>
							<path style="fill:#FFFFFF;" d="M2874.022,2487.347c-65.282,0-141.02-9.209-227.451-33.35l-1.896-0.53l-0.61-1.869
								c-0.697-2.127-69.056-215.954-13.545-487.799l55.952-274.035l7.202,1.472l-55.952,274.035
								c-52.373,256.495,6.189,460.647,12.752,482.179c208.395,57.777,353.568,27.938,438.754-7.344
								c92.535-38.326,136.191-91.158,136.622-91.688l5.708,4.633c-1.792,2.21-44.984,54.584-139.063,93.661
								C3041.264,2467.993,2968.636,2487.347,2874.022,2487.347z"/>
						</g>
					</g>
				</g>
			</g>
		</g>
		<g>
			<path style="fill:#97A6B7;" d="M2304.658,2916.643c0,23.337-17.724,43.177-39.636,44.315l-1392.688,72.343
				c-25.57,1.328-46.348-18.098-46.348-43.394V923.684c0-25.295,20.778-44.533,46.348-42.973l18.656-0.997l1374.031,85.964
				c21.912,1.337,39.636,21.337,39.636,44.674V2916.643z"/>
			<path style="fill:#D8DEE8;" d="M2332.095,2915.686c0,23.337-17.724,43.177-39.636,44.314l-1392.687,72.343
				c-25.569,1.328-46.348-18.098-46.348-43.394V922.727c0-25.295,20.778-44.533,46.348-42.974l1392.687,84.968
				c21.912,1.337,39.636,21.336,39.636,44.674V2915.686z"/>
			<path style="fill:#D8DEE8;" d="M1261.078,1074.01c-34.616,44.506-39.561,128.573,19.781,163.189
				c128.573,79.122,296.707,54.397,420.335-29.67c90.99-63.693,52.24-181.778,26.202-277.281l-273.905-16.711
				C1429.922,979.412,1304.489,1016.128,1261.078,1074.01z"/>
			<path style="fill:#FFFFFF;" d="M2266.589,2832.985c0,20.662-15.748,38.149-35.213,39.06l-1261.017,59.02
				c-22.384,1.048-40.568-16.117-40.568-38.34V1124.069c0-22.223,18.184-39.323,40.568-38.194l1261.017,63.531
				c19.464,0.98,35.213,18.524,35.213,39.185V2832.985z"/>
			
				<linearGradient id="SVGID_00000065761938158767630800000017598552241880110493_" gradientUnits="userSpaceOnUse" x1="1291.1913" y1="1008.1422" x2="1938.2823" y2="1008.1422">
				<stop  offset="0" style="stop-color:#444B8C"/>
				<stop  offset="0.9964" style="stop-color:#26264F"/>
			</linearGradient>
			<path style="fill:url(#SVGID_00000065761938158767630800000017598552241880110493_);" d="M1920.872,1093.156
				c-1.878-10.841-10.337-18.507-21.071-19.083l-66.363-3.564c-29.991-1.611-51.681-26.617-50.259-58.051l3.293-72.81
				c0.608-13.46-8.69-24.255-21.602-25.057l-21.424-1.331c-16.298-1.013-27.451-15.606-24.879-32.596
				c4.548-30.056-15.211-55.99-44.217-57.93c-29.099-1.946-56.466,20.978-61.041,51.209c-1.242,8.208-5.585,15.88-12.08,21.331
				c-6.498,5.454-14.619,8.24-22.579,7.745l-21.868-1.359c-13.229-0.822-25.91,8.752-29.418,22.227l-18.997,72.967
				c-8.212,31.541-37.983,54.155-69.199,52.477l-69.823-3.75c-11.393-0.612-22.66,6.224-28.043,17.026l-50.112,100.555l4.307,5.503
				l642.784,25.003L1920.872,1093.156z M1664.876,885.349c-8.524-0.54-14.356-8.148-13.018-16.991
				c1.338-8.843,9.338-15.562,17.86-15.006c8.514,0.555,14.328,8.161,12.992,16.99
				C1681.374,879.17,1673.393,885.89,1664.876,885.349z"/>
			<path style="fill:#97A6B7;" d="M1925.179,1098.66c-1.878-10.841-10.337-18.506-21.071-19.083l-66.362-3.565
				c-29.992-1.611-51.681-26.617-50.259-58.051l3.293-72.81c0.609-13.46-8.69-24.255-21.602-25.057l-21.424-1.332
				c-16.299-1.013-27.451-15.606-24.879-32.595c4.549-30.056-15.211-55.99-44.217-57.93c-29.099-1.946-56.466,20.978-61.041,51.209
				c-1.242,8.208-5.585,15.88-12.08,21.331c-6.499,5.454-14.618,8.24-22.579,7.745l-21.868-1.359
				c-13.229-0.823-25.91,8.752-29.418,22.227l-18.997,72.967c-8.212,31.541-37.983,54.154-69.198,52.478l-69.824-3.751
				c-11.393-0.612-22.66,6.225-28.043,17.026l-50.112,100.555l647.09,30.507L1925.179,1098.66z M1669.183,890.853
				c-8.525-0.54-14.356-8.148-13.018-16.991c1.339-8.844,9.338-15.562,17.86-15.006c8.514,0.555,14.328,8.161,12.992,16.99
				C1685.68,884.674,1677.7,891.393,1669.183,890.853z"/>
			<path style="opacity:0.3;fill:#97A6B7;" d="M1904.108,1079.577l-66.362-3.565c-19.914-1.069-36.118-12.487-44.377-29.219
				c-61.496,12.866-126.286-0.577-191.078,12.381c-44.506,9.89-39.561,79.122-89.012,84.067
				c-70.931,9.585-141.115,10.253-210.559,10.933l-7.221,14.49l647.09,30.507l-17.41-100.512
				C1923.301,1087.819,1914.842,1080.153,1904.108,1079.577z"/>
			<g>
				<g>
					<polygon style="fill:#D8DEE8;" points="2163.602,1809.484 1029.615,1785.297 1029.615,1697.397 2163.602,1727.411 					"/>
					<polygon style="fill:#D8DEE8;" points="2163.602,1929.173 1029.615,1913.484 1029.615,1880.521 2163.602,1898.396 					"/>
					<polygon style="fill:#D8DEE8;" points="2163.602,2024.925 1029.615,2016.034 1029.615,1983.071 2163.602,1994.147 					"/>
					<polygon style="fill:#D8DEE8;" points="2163.602,2120.676 1029.615,2118.583 1029.615,2085.621 2163.602,2089.899 					"/>
					<polygon style="fill:#D8DEE8;" points="2163.602,2377.153 1029.615,2393.271 1029.615,2305.371 2163.602,2295.08 					"/>
					<polygon style="fill:#D8DEE8;" points="2163.602,2496.842 1029.615,2521.458 1029.615,2488.495 2163.602,2466.065 					"/>
					<polygon style="fill:#D8DEE8;" points="2163.602,2592.593 1029.615,2624.007 1029.615,2591.045 2163.602,2561.816 					"/>
					<polygon style="fill:#D8DEE8;" points="2163.602,2688.345 1029.615,2726.557 1029.615,2693.595 2163.602,2657.567 					"/>
				</g>
				<path style="fill:#D8DEE8;" d="M1617.8,1288.83c-99.344-5.455-180.759,71.71-180.759,172.413
					c0,100.702,81.415,185.031,180.759,188.316c98.163,3.246,176.887-74.037,176.887-172.583
					C1794.688,1378.43,1715.963,1294.22,1617.8,1288.83z M1710.709,1507.899l-66.705-2.783v67.082l-66.705-2.521v-67.353
					l-66.705-2.802v-67.626l66.705,3.074v-67.353l66.705,3.335v67.082l66.705,3.053V1507.899z"/>
			</g>
		</g>
		<g>
			<g>
				
					<linearGradient id="SVGID_00000062900664331970430850000000674532664874474666_" gradientUnits="userSpaceOnUse" x1="790.7398" y1="3162.2305" x2="1699.0906" y2="3162.2305">
					<stop  offset="0" style="stop-color:#FCB148"/>
					<stop  offset="0.0521" style="stop-color:#FDBA46"/>
					<stop  offset="0.1424" style="stop-color:#FFC244"/>
					<stop  offset="0.3183" style="stop-color:#FFC444"/>
					<stop  offset="0.4849" style="stop-color:#FDB946"/>
					<stop  offset="0.7754" style="stop-color:#F99C4D"/>
					<stop  offset="0.8658" style="stop-color:#F8924F"/>
					<stop  offset="1" style="stop-color:#F8924F"/>
				</linearGradient>
				<path style="fill:url(#SVGID_00000062900664331970430850000000674532664874474666_);" d="M858.238,3092.832v87.565
					c0,28.295,176.751,51.232,394.784,51.232s394.784-22.937,394.784-51.232v-87.565H858.238z"/>
				
					<linearGradient id="SVGID_00000092415667866645069920000017042898099825364896_" gradientUnits="userSpaceOnUse" x1="1249.0897" y1="3059.908" x2="1296.9769" y2="3460.7942">
					<stop  offset="0" style="stop-color:#FFDB44"/>
					<stop  offset="1" style="stop-color:#FEEF06"/>
				</linearGradient>
				<path style="fill:url(#SVGID_00000092415667866645069920000017042898099825364896_);" d="M1647.807,3092.831
					c0,28.295-176.751,51.233-394.784,51.233s-394.784-22.937-394.784-51.233c0-28.294,176.751-51.231,394.784-51.231
					S1647.807,3064.537,1647.807,3092.831z"/>
				
					<linearGradient id="SVGID_00000174572591500344059920000010090412623273256867_" gradientUnits="userSpaceOnUse" x1="1247.0074" y1="3042.0303" x2="1261.7144" y2="3165.1492">
					<stop  offset="0" style="stop-color:#FFDB44"/>
					<stop  offset="1" style="stop-color:#FEEF06"/>
				</linearGradient>
				<path style="fill:url(#SVGID_00000174572591500344059920000010090412623273256867_);" d="M1253.021,3147.597
					c-193.096,0-395.012-18.444-395.012-54.017c0-1.953,0.697-5.387,2.651-5.387c1.954,0,1.114,2.686,1.114,4.639
					c0,22.56,160.681,47.695,391.248,47.695c230.569,0,391.25-25.135,391.25-47.695c0-1.953,0.333-3.784,2.287-3.784
					c1.954,0,1.482,2.607,1.482,4.561C1648.039,3129.182,1446.117,3147.597,1253.021,3147.597z"/>
				<g>
					<path style="fill:#FCB048;" d="M1215.717,3095.687c3.874-2.681,7.996-5.324,12.408-7.936c4.37-2.607,10.064-4.964,16.96-7.07
						c6.936-2.106,15.61-3.818,26.024-5.147c10.413-1.328,23.435-2.028,38.981-2.104c15.257-0.074,29.567,0.41,42.969,1.454
						c13.36,1.041,25.152,2.604,35.335,4.678c10.141,2.077,18.422,4.645,24.806,7.696c6.342,3.061,10.121,6.562,11.34,10.51
						l44.452,0.45c3.226,0.021,6.08,0.282,8.522,0.789c2.483,0.507,3.686,1.146,3.689,1.922l0.018,3.66l-57.146-0.551
						c-2.005,4.483-7.111,8.583-15.322,12.301c-8.169,3.724-18.614,6.943-31.336,9.668l-20.812-2.894
						c-1.862-0.284-3.394-0.647-4.596-1.089c-1.201-0.437-1.782-0.911-1.785-1.431c-0.003-0.704,1.605-1.505,4.826-2.407
						c3.22-0.904,6.854-2.023,10.899-3.356c4.046-1.328,8.009-2.902,11.927-4.716c3.878-1.811,6.473-3.976,7.824-6.497
						l-134.886-1.337c-3.543,2.608-7.541,5.168-11.912,7.685c-4.412,2.517-10.231,4.784-17.498,6.796
						c-7.268,2.014-16.315,3.646-27.142,4.905c-10.87,1.254-24.469,1.92-40.926,2.001c-12.364,0.06-24.398-0.409-36.187-1.402
						c-11.789-0.999-22.258-2.49-31.405-4.477c-9.148-1.99-16.644-4.45-22.53-7.376c-5.844-2.933-9.128-6.297-9.808-10.103
						l-36.595-0.376c-3.226-0.02-6.08-0.272-8.646-0.76c-2.524-0.489-3.81-1.137-3.814-1.95l-0.018-3.66l50.034,0.476
						c2.214-3.856,6.746-7.218,13.679-10.077c6.932-2.864,15.396-5.411,25.392-7.64l16.757,2.302c5.09,0.715,7.616,1.55,7.621,2.512
						c0.002,0.519-1.028,1.16-3.133,1.929c-2.147,0.769-4.624,1.688-7.512,2.754c-2.848,1.07-5.654,2.321-8.334,3.76
						c-2.723,1.435-4.74,3.061-6.095,4.882L1215.717,3095.687z M1092.274,3100.674c1.005,2.401,3.247,4.467,6.647,6.205
						c3.399,1.744,7.624,3.171,12.715,4.293c5.091,1.122,10.802,1.943,17.131,2.466c6.37,0.524,13.028,0.772,19.975,0.738
						c8.104-0.04,15.173-0.39,21.206-1.048c5.992-0.66,11.28-1.553,15.864-2.686c4.543-1.133,8.547-2.443,11.931-3.939
						c3.383-1.497,6.394-3.118,9.114-4.869L1092.274,3100.674z M1385.916,3097.402c-1.004-2.432-3.455-4.564-7.267-6.395
						c-3.814-1.828-8.701-3.369-14.619-4.613c-5.92-1.249-12.829-2.175-20.73-2.782c-7.859-0.607-16.544-0.89-26.053-0.842
						c-8.435,0.041-15.752,0.42-21.826,1.132c-6.075,0.716-11.363,1.67-15.863,2.88c-4.46,1.204-8.299,2.608-11.392,4.212
						c-3.135,1.604-6.063,3.321-8.742,5.147L1385.916,3097.402z"/>
				</g>
				
					<linearGradient id="SVGID_00000154409859586746544910000010763154601466161826_" gradientUnits="userSpaceOnUse" x1="408.4161" y1="975.5972" x2="423.0709" y2="1098.2797" gradientTransform="matrix(-1 0 0 -1 1669.249 4127.8389)">
					<stop  offset="0.0036" style="stop-color:#F36F56"/>
					<stop  offset="0.3059" style="stop-color:#F99C4C"/>
					<stop  offset="0.545" style="stop-color:#FDB946"/>
					<stop  offset="0.6817" style="stop-color:#FFC444"/>
					<stop  offset="0.8038" style="stop-color:#FFC244"/>
					<stop  offset="0.8667" style="stop-color:#FEBA46"/>
					<stop  offset="0.916" style="stop-color:#FCAD49"/>
					<stop  offset="0.958" style="stop-color:#F99A4D"/>
					<stop  offset="0.9955" style="stop-color:#F58152"/>
					<stop  offset="1" style="stop-color:#F57E53"/>
				</linearGradient>
				<path style="fill:url(#SVGID_00000154409859586746544910000010763154601466161826_);" d="M1253.076,3047.146
					c-176.027,0-359.311,15.488-388.627,45.474c1.147,1.057,2.213,2.186,3.204,3.374c24.711-20.819,176.051-41.78,385.423-41.78
					c214.746,0,368.514,22.054,387.14,43.386c0.916-1.171,1.894-2.29,2.953-3.346
					C1618.954,3063.207,1432.23,3047.146,1253.076,3047.146z"/>
			</g>
			<g>
				
					<linearGradient id="SVGID_00000006676599824208700900000011554674053554714557_" gradientUnits="userSpaceOnUse" x1="680.9926" y1="3070.2537" x2="1589.3424" y2="3070.2537">
					<stop  offset="0" style="stop-color:#FCB148"/>
					<stop  offset="0.0521" style="stop-color:#FDBA46"/>
					<stop  offset="0.1424" style="stop-color:#FFC244"/>
					<stop  offset="0.3183" style="stop-color:#FFC444"/>
					<stop  offset="0.4849" style="stop-color:#FDB946"/>
					<stop  offset="0.7754" style="stop-color:#F99C4D"/>
					<stop  offset="0.8658" style="stop-color:#F8924F"/>
					<stop  offset="1" style="stop-color:#F8924F"/>
				</linearGradient>
				<path style="fill:url(#SVGID_00000006676599824208700900000011554674053554714557_);" d="M748.491,3000.855v87.565
					c0,28.296,176.751,51.232,394.784,51.232c218.033,0,394.783-22.937,394.783-51.232v-87.565H748.491z"/>
				
					<linearGradient id="SVGID_00000090278490423127914300000018041466369714577571_" gradientUnits="userSpaceOnUse" x1="1139.342" y1="2967.9321" x2="1187.2292" y2="3368.8179">
					<stop  offset="0" style="stop-color:#FFDB44"/>
					<stop  offset="1" style="stop-color:#FEEF06"/>
				</linearGradient>
				<path style="fill:url(#SVGID_00000090278490423127914300000018041466369714577571_);" d="M1538.058,3000.855
					c0,28.295-176.751,51.232-394.783,51.232c-218.033,0-394.784-22.937-394.784-51.232c0-28.294,176.751-51.232,394.784-51.232
					C1361.308,2949.623,1538.058,2972.561,1538.058,3000.855z"/>
				
					<linearGradient id="SVGID_00000177456273139453342330000009320367358532200104_" gradientUnits="userSpaceOnUse" x1="1137.2599" y1="2950.0544" x2="1151.9668" y2="3073.1726">
					<stop  offset="0" style="stop-color:#FFDB44"/>
					<stop  offset="1" style="stop-color:#FEEF06"/>
				</linearGradient>
				<path style="fill:url(#SVGID_00000177456273139453342330000009320367358532200104_);" d="M1143.274,3055.62
					c-193.096,0-395.012-18.443-395.012-54.016c0-1.954,0.697-5.387,2.65-5.387c1.954,0,1.114,2.686,1.114,4.638
					c0,22.561,160.681,47.697,391.249,47.697s391.249-25.135,391.249-47.697c0-1.953,0.334-3.783,2.287-3.783
					c1.954,0,1.483,2.607,1.483,4.561C1538.292,3037.206,1336.37,3055.62,1143.274,3055.62z"/>
				<g>
					<path style="fill:#FCB048;" d="M1105.969,3003.712c3.873-2.682,7.996-5.325,12.407-7.937c4.37-2.609,10.065-4.965,16.96-7.071
						c6.937-2.105,15.612-3.818,26.025-5.146c10.413-1.328,23.435-2.028,38.98-2.105c15.258-0.074,29.567,0.411,42.969,1.454
						c13.361,1.041,25.153,2.603,35.335,4.679c10.141,2.076,18.423,4.645,24.806,7.695c6.342,3.062,10.122,6.562,11.34,10.511
						l44.452,0.45c3.226,0.02,6.081,0.281,8.522,0.788c2.484,0.507,3.686,1.146,3.689,1.923l0.018,3.66l-57.146-0.55
						c-2.004,4.483-7.111,8.583-15.322,12.302c-8.169,3.723-18.614,6.942-31.336,9.667l-20.812-2.895
						c-1.862-0.284-3.394-0.646-4.595-1.088c-1.202-0.437-1.783-0.912-1.785-1.431c-0.004-0.705,1.606-1.506,4.826-2.406
						c3.221-0.905,6.854-2.025,10.9-3.357c4.045-1.329,8.008-2.901,11.926-4.716c3.879-1.811,6.473-3.976,7.824-6.497
						l-134.885-1.337c-3.544,2.607-7.542,5.168-11.913,7.686c-4.412,2.517-10.23,4.784-17.497,6.797
						c-7.268,2.012-16.316,3.645-27.143,4.903c-10.868,1.253-24.469,1.92-40.925,2.001c-12.363,0.061-24.398-0.408-36.188-1.402
						c-11.789-0.998-22.257-2.49-31.405-4.476c-9.147-1.99-16.644-4.45-22.529-7.377c-5.845-2.932-9.127-6.296-9.808-10.102
						l-36.596-0.376c-3.225-0.02-6.08-0.272-8.646-0.761c-2.525-0.488-3.809-1.137-3.814-1.949l-0.018-3.66l50.035,0.476
						c2.213-3.856,6.745-7.218,13.678-10.078c6.932-2.864,15.397-5.41,25.392-7.638l16.757,2.301
						c5.089,0.715,7.615,1.551,7.62,2.512c0.003,0.52-1.028,1.16-3.133,1.93c-2.146,0.768-4.622,1.688-7.512,2.754
						c-2.848,1.07-5.653,2.321-8.334,3.76c-2.722,1.435-4.74,3.06-6.095,4.882L1105.969,3003.712z M982.526,3008.699
						c1.005,2.4,3.247,4.465,6.646,6.204c3.399,1.743,7.624,3.171,12.715,4.293c5.091,1.121,10.802,1.942,17.131,2.467
						c6.37,0.523,13.028,0.771,19.974,0.737c8.105-0.041,15.173-0.391,21.206-1.048c5.992-0.661,11.281-1.554,15.866-2.686
						c4.543-1.133,8.546-2.444,11.93-3.941c3.383-1.498,6.394-3.119,9.115-4.869L982.526,3008.699z M1276.169,3005.426
						c-1.005-2.433-3.455-4.564-7.268-6.395c-3.814-1.828-8.699-3.37-14.619-4.614c-5.918-1.248-12.829-2.175-20.728-2.781
						c-7.86-0.608-16.545-0.89-26.054-0.843c-8.436,0.042-15.752,0.42-21.827,1.132c-6.074,0.716-11.362,1.671-15.863,2.881
						c-4.459,1.204-8.298,2.608-11.392,4.213c-3.135,1.604-6.063,3.319-8.74,5.147L1276.169,3005.426z"/>
				</g>
				
					<linearGradient id="SVGID_00000157988052466638330460000008379821266125714364_" gradientUnits="userSpaceOnUse" x1="518.1643" y1="1067.5739" x2="532.8192" y2="1190.256" gradientTransform="matrix(-1 0 0 -1 1669.249 4127.8389)">
					<stop  offset="0.0036" style="stop-color:#F36F56"/>
					<stop  offset="0.3059" style="stop-color:#F99C4C"/>
					<stop  offset="0.545" style="stop-color:#FDB946"/>
					<stop  offset="0.6817" style="stop-color:#FFC444"/>
					<stop  offset="0.8038" style="stop-color:#FFC244"/>
					<stop  offset="0.8667" style="stop-color:#FEBA46"/>
					<stop  offset="0.916" style="stop-color:#FCAD49"/>
					<stop  offset="0.958" style="stop-color:#F99A4D"/>
					<stop  offset="0.9955" style="stop-color:#F58152"/>
					<stop  offset="1" style="stop-color:#F57E53"/>
				</linearGradient>
				<path style="fill:url(#SVGID_00000157988052466638330460000008379821266125714364_);" d="M1143.328,2955.169
					c-176.027,0-359.31,15.489-388.627,45.474c1.147,1.057,2.213,2.186,3.204,3.374c24.711-20.82,176.052-41.78,385.423-41.78
					c214.746,0,368.514,22.053,387.14,43.385c0.915-1.17,1.893-2.29,2.952-3.345
					C1509.206,2971.231,1322.482,2955.169,1143.328,2955.169z"/>
			</g>
			<g>
				
					<linearGradient id="SVGID_00000052810862421688414260000000249871779880558014_" gradientUnits="userSpaceOnUse" x1="775.6892" y1="2978.5466" x2="1684.04" y2="2978.5466">
					<stop  offset="0" style="stop-color:#FCB148"/>
					<stop  offset="0.0521" style="stop-color:#FDBA46"/>
					<stop  offset="0.1424" style="stop-color:#FFC244"/>
					<stop  offset="0.3183" style="stop-color:#FFC444"/>
					<stop  offset="0.4849" style="stop-color:#FDB946"/>
					<stop  offset="0.7754" style="stop-color:#F99C4D"/>
					<stop  offset="0.8658" style="stop-color:#F8924F"/>
					<stop  offset="1" style="stop-color:#F8924F"/>
				</linearGradient>
				<path style="fill:url(#SVGID_00000052810862421688414260000000249871779880558014_);" d="M843.188,2909.148v87.565
					c0,28.296,176.751,51.232,394.785,51.232c218.033,0,394.783-22.937,394.783-51.232v-87.565H843.188z"/>
				
					<linearGradient id="SVGID_00000078021469625576634690000005226120093156964506_" gradientUnits="userSpaceOnUse" x1="1234.0392" y1="2876.2251" x2="1281.9264" y2="3277.1111">
					<stop  offset="0" style="stop-color:#FFDB44"/>
					<stop  offset="1" style="stop-color:#FEEF06"/>
				</linearGradient>
				<path style="fill:url(#SVGID_00000078021469625576634690000005226120093156964506_);" d="M1632.756,2909.148
					c0,28.295-176.751,51.232-394.783,51.232c-218.033,0-394.785-22.938-394.785-51.232c0-28.294,176.751-51.232,394.785-51.232
					C1456.005,2857.917,1632.756,2880.854,1632.756,2909.148z"/>
				
					<linearGradient id="SVGID_00000179606080918078757390000005882090576127328176_" gradientUnits="userSpaceOnUse" x1="1231.9574" y1="2858.3474" x2="1246.6643" y2="2981.4656">
					<stop  offset="0" style="stop-color:#FFDB44"/>
					<stop  offset="1" style="stop-color:#FEEF06"/>
				</linearGradient>
				<path style="fill:url(#SVGID_00000179606080918078757390000005882090576127328176_);" d="M1237.971,2963.913
					c-193.095,0-395.012-18.442-395.012-54.016c0-1.954,0.697-5.387,2.65-5.387c1.954,0,1.114,2.686,1.114,4.639
					c0,22.561,160.681,47.696,391.249,47.696s391.249-25.135,391.249-47.696c0-1.953,0.334-3.783,2.287-3.783
					c1.954,0,1.483,2.607,1.483,4.561C1632.989,2945.499,1431.067,2963.913,1237.971,2963.913z"/>
				<g>
					<path style="fill:#FCB048;" d="M1200.667,2912.004c3.873-2.681,7.995-5.324,12.407-7.936c4.37-2.609,10.064-4.964,16.96-7.071
						c6.936-2.105,15.611-3.818,26.025-5.146c10.413-1.328,23.434-2.028,38.98-2.105c15.258-0.074,29.567,0.411,42.969,1.455
						c13.36,1.04,25.153,2.603,35.334,4.678c10.142,2.076,18.423,4.645,24.807,7.695c6.341,3.061,10.121,6.562,11.339,10.51
						l44.451,0.45c3.226,0.02,6.08,0.282,8.522,0.789c2.484,0.507,3.686,1.146,3.689,1.923l0.018,3.66l-57.146-0.55
						c-2.004,4.483-7.111,8.583-15.322,12.302c-8.168,3.723-18.614,6.942-31.336,9.667l-20.813-2.895
						c-1.861-0.283-3.393-0.646-4.594-1.088c-1.202-0.437-1.783-0.912-1.785-1.431c-0.003-0.705,1.606-1.506,4.826-2.406
						c3.222-0.905,6.854-2.025,10.9-3.357c4.045-1.329,8.008-2.901,11.926-4.716c3.879-1.811,6.473-3.976,7.825-6.497
						l-134.886-1.337c-3.543,2.607-7.541,5.168-11.912,7.686c-4.411,2.517-10.231,4.784-17.497,6.797
						c-7.268,2.012-16.316,3.645-27.143,4.903c-10.869,1.254-24.469,1.92-40.925,2.001c-12.364,0.061-24.398-0.408-36.188-1.402
						c-11.789-0.998-22.258-2.49-31.405-4.476c-9.147-1.99-16.644-4.45-22.529-7.377c-5.844-2.932-9.128-6.296-9.809-10.102
						l-36.595-0.376c-3.226-0.02-6.08-0.272-8.646-0.761c-2.525-0.488-3.81-1.136-3.814-1.948l-0.018-3.66l50.035,0.476
						c2.213-3.856,6.745-7.218,13.679-10.077c6.931-2.865,15.397-5.411,25.391-7.639l16.758,2.301
						c5.089,0.715,7.615,1.551,7.62,2.511c0.002,0.52-1.028,1.16-3.133,1.93c-2.147,0.769-4.623,1.688-7.512,2.753
						c-2.848,1.071-5.653,2.321-8.334,3.76c-2.722,1.435-4.74,3.061-6.095,4.881L1200.667,2912.004z M1077.224,2916.992
						c1.005,2.4,3.247,4.466,6.647,6.204c3.398,1.743,7.623,3.171,12.715,4.293c5.091,1.121,10.802,1.942,17.13,2.467
						c6.371,0.523,13.029,0.771,19.975,0.737c8.104-0.041,15.173-0.391,21.206-1.048c5.992-0.661,11.28-1.554,15.865-2.686
						c4.544-1.133,8.547-2.444,11.93-3.941c3.383-1.498,6.394-3.119,9.114-4.869L1077.224,2916.992z M1370.866,2913.719
						c-1.004-2.433-3.454-4.564-7.267-6.395c-3.814-1.828-8.7-3.37-14.619-4.613c-5.919-1.249-12.829-2.176-20.729-2.782
						c-7.86-0.608-16.545-0.89-26.053-0.843c-8.436,0.042-15.753,0.421-21.827,1.132c-6.075,0.716-11.362,1.671-15.863,2.881
						c-4.459,1.204-8.298,2.609-11.392,4.213c-3.135,1.604-6.062,3.319-8.741,5.147L1370.866,2913.719z"/>
				</g>
				
					<linearGradient id="SVGID_00000121250884956450228840000009376864218084930458_" gradientUnits="userSpaceOnUse" x1="423.4668" y1="1159.2808" x2="438.1216" y2="1281.963" gradientTransform="matrix(-1 0 0 -1 1669.249 4127.8389)">
					<stop  offset="0.0036" style="stop-color:#F36F56"/>
					<stop  offset="0.3059" style="stop-color:#F99C4C"/>
					<stop  offset="0.545" style="stop-color:#FDB946"/>
					<stop  offset="0.6817" style="stop-color:#FFC444"/>
					<stop  offset="0.8038" style="stop-color:#FFC244"/>
					<stop  offset="0.8667" style="stop-color:#FEBA46"/>
					<stop  offset="0.916" style="stop-color:#FCAD49"/>
					<stop  offset="0.958" style="stop-color:#F99A4D"/>
					<stop  offset="0.9955" style="stop-color:#F58152"/>
					<stop  offset="1" style="stop-color:#F57E53"/>
				</linearGradient>
				<path style="fill:url(#SVGID_00000121250884956450228840000009376864218084930458_);" d="M1238.026,2863.462
					c-176.027,0-359.31,15.489-388.628,45.474c1.147,1.057,2.213,2.187,3.204,3.375c24.711-20.82,176.052-41.78,385.423-41.78
					c214.746,0,368.514,22.053,387.14,43.385c0.915-1.17,1.892-2.29,2.952-3.345
					C1603.903,2879.524,1417.18,2863.462,1238.026,2863.462z"/>
			</g>
			<g>
				
					<linearGradient id="SVGID_00000138575356367260859450000016163628506685894017_" gradientUnits="userSpaceOnUse" x1="833.1553" y1="2886.5713" x2="1741.5052" y2="2886.5713">
					<stop  offset="0" style="stop-color:#FCB148"/>
					<stop  offset="0.0521" style="stop-color:#FDBA46"/>
					<stop  offset="0.1424" style="stop-color:#FFC244"/>
					<stop  offset="0.3183" style="stop-color:#FFC444"/>
					<stop  offset="0.4849" style="stop-color:#FDB946"/>
					<stop  offset="0.7754" style="stop-color:#F99C4D"/>
					<stop  offset="0.8658" style="stop-color:#F8924F"/>
					<stop  offset="1" style="stop-color:#F8924F"/>
				</linearGradient>
				<path style="fill:url(#SVGID_00000138575356367260859450000016163628506685894017_);" d="M900.654,2817.173v87.564
					c0,28.296,176.75,51.232,394.783,51.232c218.033,0,394.784-22.937,394.784-51.232v-87.564H900.654z"/>
				
					<linearGradient id="SVGID_00000013177415445757936000000011020360987588160430_" gradientUnits="userSpaceOnUse" x1="1291.5048" y1="2784.2488" x2="1339.3921" y2="3185.1353">
					<stop  offset="0" style="stop-color:#FFDB44"/>
					<stop  offset="1" style="stop-color:#FEEF06"/>
				</linearGradient>
				
					<ellipse style="fill:url(#SVGID_00000013177415445757936000000011020360987588160430_);" cx="1295.437" cy="2817.172" rx="394.783" ry="51.232"/>
				
					<linearGradient id="SVGID_00000034804120645283276160000018434314592168374679_" gradientUnits="userSpaceOnUse" x1="1289.422" y1="2766.3706" x2="1304.1289" y2="2889.4897">
					<stop  offset="0" style="stop-color:#FFDB44"/>
					<stop  offset="1" style="stop-color:#FEEF06"/>
				</linearGradient>
				<path style="fill:url(#SVGID_00000034804120645283276160000018434314592168374679_);" d="M1295.435,2871.938
					c-193.096,0-395.012-18.443-395.012-54.017c0-1.954,0.697-5.388,2.651-5.388c1.954,0,1.114,2.686,1.114,4.64
					c0,22.56,160.681,47.695,391.248,47.695c230.568,0,391.25-25.135,391.25-47.695c0-1.954,0.333-3.785,2.287-3.785
					s1.482,2.607,1.482,4.561C1690.454,2853.523,1488.532,2871.938,1295.435,2871.938z"/>
				<g>
					<path style="fill:#FCB048;" d="M1258.131,2820.028c3.873-2.682,7.996-5.325,12.407-7.937c4.37-2.607,10.065-4.964,16.96-7.07
						c6.937-2.106,15.612-3.818,26.025-5.146c10.413-1.328,23.435-2.028,38.981-2.105c15.257-0.074,29.567,0.41,42.969,1.454
						c13.361,1.041,25.152,2.603,35.335,4.678c10.141,2.077,18.422,4.645,24.806,7.696c6.342,3.061,10.121,6.562,11.34,10.51
						l44.452,0.449c3.226,0.022,6.081,0.282,8.522,0.789c2.483,0.507,3.686,1.146,3.689,1.922l0.018,3.661l-57.147-0.55
						c-2.004,4.483-7.111,8.583-15.321,12.302c-8.169,3.722-18.615,6.942-31.336,9.668l-20.812-2.896
						c-1.862-0.284-3.394-0.647-4.596-1.088c-1.201-0.437-1.782-0.912-1.784-1.431c-0.004-0.704,1.605-1.506,4.826-2.406
						c3.22-0.906,6.854-2.025,10.899-3.358c4.046-1.328,8.008-2.9,11.927-4.716c3.878-1.81,6.473-3.976,7.824-6.496l-134.885-1.338
						c-3.544,2.608-7.542,5.169-11.913,7.685c-4.412,2.519-10.231,4.785-17.498,6.797c-7.268,2.013-16.315,3.645-27.142,4.904
						c-10.869,1.254-24.469,1.921-40.926,2.001c-12.363,0.06-24.398-0.409-36.187-1.402c-11.79-0.999-22.257-2.49-31.406-4.476
						c-9.147-1.991-16.643-4.45-22.529-7.377c-5.845-2.933-9.127-6.296-9.808-10.103l-36.596-0.375
						c-3.224-0.021-6.079-0.272-8.645-0.761c-2.525-0.489-3.809-1.137-3.814-1.95l-0.017-3.66l50.033,0.476
						c2.214-3.856,6.746-7.219,13.678-10.078c6.933-2.864,15.396-5.41,25.393-7.639l16.756,2.301
						c5.09,0.715,7.616,1.552,7.621,2.512c0.003,0.519-1.029,1.161-3.133,1.929c-2.146,0.769-4.623,1.688-7.512,2.754
						c-2.848,1.07-5.654,2.321-8.335,3.76c-2.722,1.435-4.74,3.061-6.094,4.881L1258.131,2820.028z M1134.688,2825.016
						c1.005,2.4,3.247,4.466,6.647,6.204c3.4,1.744,7.624,3.171,12.714,4.293c5.092,1.121,10.802,1.942,17.132,2.466
						c6.369,0.524,13.027,0.771,19.974,0.738c8.105-0.04,15.173-0.391,21.206-1.048c5.992-0.661,11.281-1.553,15.865-2.686
						c4.542-1.133,8.547-2.443,11.93-3.94c3.383-1.498,6.394-3.119,9.114-4.869L1134.688,2825.016z M1428.331,2821.743
						c-1.005-2.432-3.455-4.564-7.268-6.396c-3.813-1.827-8.699-3.369-14.618-4.614c-5.919-1.248-12.828-2.175-20.729-2.781
						c-7.859-0.607-16.544-0.89-26.054-0.843c-8.435,0.042-15.751,0.42-21.826,1.132c-6.075,0.716-11.363,1.671-15.863,2.88
						c-4.46,1.204-8.299,2.608-11.392,4.213c-3.135,1.604-6.063,3.32-8.741,5.148L1428.331,2821.743z"/>
				</g>
				
					<linearGradient id="SVGID_00000154402806444900521480000010624777172201256074_" gradientUnits="userSpaceOnUse" x1="366.002" y1="1251.2567" x2="380.6568" y2="1373.9388" gradientTransform="matrix(-1 0 0 -1 1669.249 4127.8389)">
					<stop  offset="0.0036" style="stop-color:#F36F56"/>
					<stop  offset="0.3059" style="stop-color:#F99C4C"/>
					<stop  offset="0.545" style="stop-color:#FDB946"/>
					<stop  offset="0.6817" style="stop-color:#FFC444"/>
					<stop  offset="0.8038" style="stop-color:#FFC244"/>
					<stop  offset="0.8667" style="stop-color:#FEBA46"/>
					<stop  offset="0.916" style="stop-color:#FCAD49"/>
					<stop  offset="0.958" style="stop-color:#F99A4D"/>
					<stop  offset="0.9955" style="stop-color:#F58152"/>
					<stop  offset="1" style="stop-color:#F57E53"/>
				</linearGradient>
				<path style="fill:url(#SVGID_00000154402806444900521480000010624777172201256074_);" d="M1295.491,2771.486
					c-176.028,0-359.311,15.489-388.628,45.474c1.148,1.057,2.214,2.186,3.205,3.374c24.711-20.819,176.051-41.781,385.423-41.781
					c214.747,0,368.513,22.054,387.139,43.385c0.916-1.17,1.894-2.29,2.953-3.344
					C1661.369,2787.547,1474.645,2771.486,1295.491,2771.486z"/>
			</g>
			<g>
				
					<linearGradient id="SVGID_00000142865020100429248290000002135557834893355684_" gradientUnits="userSpaceOnUse" x1="790.7398" y1="2787.3391" x2="1699.0906" y2="2787.3391">
					<stop  offset="0" style="stop-color:#FCB148"/>
					<stop  offset="0.0521" style="stop-color:#FDBA46"/>
					<stop  offset="0.1424" style="stop-color:#FFC244"/>
					<stop  offset="0.3183" style="stop-color:#FFC444"/>
					<stop  offset="0.4849" style="stop-color:#FDB946"/>
					<stop  offset="0.7754" style="stop-color:#F99C4D"/>
					<stop  offset="0.8658" style="stop-color:#F8924F"/>
					<stop  offset="1" style="stop-color:#F8924F"/>
				</linearGradient>
				<path style="fill:url(#SVGID_00000142865020100429248290000002135557834893355684_);" d="M858.238,2717.941v87.565
					c0,28.295,176.751,51.232,394.784,51.232s394.784-22.937,394.784-51.232v-87.565H858.238z"/>
				
					<linearGradient id="SVGID_00000178900241379303724990000013110955344472533122_" gradientUnits="userSpaceOnUse" x1="1249.0896" y1="2685.0171" x2="1296.9769" y2="3085.9033">
					<stop  offset="0" style="stop-color:#FFDB44"/>
					<stop  offset="1" style="stop-color:#FEEF06"/>
				</linearGradient>
				<path style="fill:url(#SVGID_00000178900241379303724990000013110955344472533122_);" d="M1647.807,2717.941
					c0,28.294-176.751,51.231-394.784,51.231s-394.784-22.937-394.784-51.231c0-28.295,176.751-51.233,394.784-51.233
					S1647.807,2689.646,1647.807,2717.941z"/>
				
					<linearGradient id="SVGID_00000066510970272772263310000006368218023269898139_" gradientUnits="userSpaceOnUse" x1="1247.0073" y1="2667.1384" x2="1261.7144" y2="2790.2576">
					<stop  offset="0" style="stop-color:#FFDB44"/>
					<stop  offset="1" style="stop-color:#FEEF06"/>
				</linearGradient>
				<path style="fill:url(#SVGID_00000066510970272772263310000006368218023269898139_);" d="M1253.021,2772.705
					c-193.096,0-395.012-18.443-395.012-54.016c0-1.954,0.697-5.388,2.651-5.388c1.954,0,1.114,2.686,1.114,4.64
					c0,22.559,160.681,47.695,391.248,47.695c230.569,0,391.25-25.136,391.25-47.695c0-1.954,0.333-3.784,2.287-3.784
					c1.954,0,1.482,2.607,1.482,4.561C1648.039,2754.29,1446.117,2772.705,1253.021,2772.705z"/>
				<g>
					<path style="fill:#FCB048;" d="M1215.717,2720.796c3.874-2.682,7.996-5.324,12.408-7.936c4.37-2.607,10.064-4.964,16.96-7.071
						c6.936-2.105,15.61-3.817,26.024-5.146c10.413-1.328,23.435-2.028,38.981-2.105c15.257-0.074,29.567,0.41,42.969,1.455
						c13.36,1.04,25.152,2.602,35.335,4.678c10.141,2.076,18.422,4.644,24.806,7.696c6.342,3.06,10.121,6.562,11.34,10.509
						l44.452,0.451c3.226,0.021,6.08,0.281,8.522,0.788c2.483,0.508,3.686,1.146,3.689,1.923l0.018,3.66l-57.146-0.55
						c-2.005,4.483-7.111,8.583-15.322,12.302c-8.169,3.723-18.614,6.942-31.336,9.667l-20.812-2.895
						c-1.862-0.284-3.394-0.647-4.596-1.088c-1.201-0.436-1.782-0.912-1.785-1.431c-0.003-0.704,1.605-1.506,4.826-2.406
						c3.22-0.906,6.854-2.024,10.899-3.358c4.046-1.328,8.009-2.9,11.927-4.715c3.878-1.811,6.473-3.977,7.824-6.498l-134.886-1.337
						c-3.543,2.608-7.541,5.168-11.912,7.686c-4.412,2.518-10.231,4.785-17.498,6.797c-7.268,2.012-16.315,3.644-27.142,4.903
						c-10.87,1.254-24.469,1.921-40.926,2.001c-12.364,0.062-24.398-0.409-36.187-1.402c-11.789-0.999-22.258-2.49-31.405-4.476
						c-9.148-1.991-16.644-4.45-22.53-7.377c-5.844-2.932-9.128-6.296-9.808-10.102l-36.595-0.375
						c-3.226-0.021-6.08-0.273-8.646-0.762c-2.524-0.489-3.81-1.137-3.814-1.949l-0.018-3.66l50.034,0.477
						c2.214-3.857,6.746-7.219,13.679-10.078c6.932-2.864,15.396-5.41,25.392-7.639l16.757,2.301
						c5.09,0.716,7.616,1.552,7.621,2.513c0.002,0.519-1.028,1.16-3.133,1.928c-2.147,0.769-4.624,1.689-7.512,2.754
						c-2.848,1.071-5.654,2.322-8.334,3.761c-2.723,1.434-4.74,3.06-6.095,4.881L1215.717,2720.796z M1092.274,2725.784
						c1.005,2.4,3.247,4.465,6.647,6.204c3.399,1.744,7.624,3.172,12.715,4.292c5.091,1.122,10.802,1.942,17.131,2.467
						c6.37,0.523,13.028,0.77,19.975,0.737c8.104-0.04,15.173-0.391,21.206-1.047c5.992-0.662,11.28-1.554,15.864-2.687
						c4.543-1.133,8.547-2.442,11.931-3.94c3.383-1.497,6.394-3.118,9.114-4.869L1092.274,2725.784z M1385.916,2722.511
						c-1.004-2.432-3.455-4.564-7.267-6.396c-3.814-1.827-8.701-3.369-14.619-4.613c-5.92-1.248-12.829-2.175-20.73-2.781
						c-7.859-0.607-16.544-0.89-26.053-0.843c-8.435,0.042-15.752,0.42-21.826,1.132c-6.075,0.716-11.363,1.672-15.863,2.88
						c-4.46,1.205-8.299,2.609-11.392,4.213c-3.135,1.604-6.063,3.32-8.742,5.148L1385.916,2722.511z"/>
				</g>
				
					<linearGradient id="SVGID_00000145044980192226822330000001881416436343111333_" gradientUnits="userSpaceOnUse" x1="408.4162" y1="1350.4891" x2="423.071" y2="1473.1708" gradientTransform="matrix(-1 0 0 -1 1669.249 4127.8389)">
					<stop  offset="0.0036" style="stop-color:#F36F56"/>
					<stop  offset="0.3059" style="stop-color:#F99C4C"/>
					<stop  offset="0.545" style="stop-color:#FDB946"/>
					<stop  offset="0.6817" style="stop-color:#FFC444"/>
					<stop  offset="0.8038" style="stop-color:#FFC244"/>
					<stop  offset="0.8667" style="stop-color:#FEBA46"/>
					<stop  offset="0.916" style="stop-color:#FCAD49"/>
					<stop  offset="0.958" style="stop-color:#F99A4D"/>
					<stop  offset="0.9955" style="stop-color:#F58152"/>
					<stop  offset="1" style="stop-color:#F57E53"/>
				</linearGradient>
				<path style="fill:url(#SVGID_00000145044980192226822330000001881416436343111333_);" d="M1253.076,2672.254
					c-176.027,0-359.311,15.49-388.627,45.474c1.147,1.058,2.213,2.188,3.204,3.375c24.711-20.819,176.051-41.78,385.423-41.78
					c214.746,0,368.514,22.053,387.14,43.385c0.916-1.17,1.894-2.29,2.953-3.344
					C1618.954,2688.316,1432.23,2672.254,1253.076,2672.254z"/>
			</g>
			<g>
				
					<linearGradient id="SVGID_00000017475189841258995340000003427769400940752318_" gradientUnits="userSpaceOnUse" x1="680.9926" y1="2695.3623" x2="1589.3424" y2="2695.3623">
					<stop  offset="0" style="stop-color:#FCB148"/>
					<stop  offset="0.0521" style="stop-color:#FDBA46"/>
					<stop  offset="0.1424" style="stop-color:#FFC244"/>
					<stop  offset="0.3183" style="stop-color:#FFC444"/>
					<stop  offset="0.4849" style="stop-color:#FDB946"/>
					<stop  offset="0.7754" style="stop-color:#F99C4D"/>
					<stop  offset="0.8658" style="stop-color:#F8924F"/>
					<stop  offset="1" style="stop-color:#F8924F"/>
				</linearGradient>
				<path style="fill:url(#SVGID_00000017475189841258995340000003427769400940752318_);" d="M748.491,2625.964v87.566
					c0,28.294,176.751,51.231,394.784,51.231c218.033,0,394.783-22.937,394.783-51.231v-87.566H748.491z"/>
				
					<linearGradient id="SVGID_00000121999771621087766530000001079803117931251866_" gradientUnits="userSpaceOnUse" x1="1139.3419" y1="2593.0405" x2="1187.2292" y2="2993.9277">
					<stop  offset="0" style="stop-color:#FFDB44"/>
					<stop  offset="1" style="stop-color:#FEEF06"/>
				</linearGradient>
				
					<ellipse style="fill:url(#SVGID_00000121999771621087766530000001079803117931251866_);" cx="1143.275" cy="2625.964" rx="394.784" ry="51.232"/>
				
					<linearGradient id="SVGID_00000140737215869808292360000007685018943160106403_" gradientUnits="userSpaceOnUse" x1="1137.2599" y1="2575.1624" x2="1151.9669" y2="2698.2815">
					<stop  offset="0" style="stop-color:#FFDB44"/>
					<stop  offset="1" style="stop-color:#FEEF06"/>
				</linearGradient>
				<path style="fill:url(#SVGID_00000140737215869808292360000007685018943160106403_);" d="M1143.274,2680.729
					c-193.096,0-395.012-18.443-395.012-54.017c0-1.954,0.697-5.387,2.65-5.387c1.954,0,1.114,2.685,1.114,4.639
					c0,22.56,160.681,47.696,391.249,47.696s391.249-25.136,391.249-47.696c0-1.954,0.334-3.784,2.287-3.784
					c1.954,0,1.483,2.607,1.483,4.561C1538.292,2662.314,1336.37,2680.729,1143.274,2680.729z"/>
				<g>
					<path style="fill:#FCB048;" d="M1105.969,2628.82c3.873-2.682,7.996-5.325,12.407-7.937c4.37-2.607,10.065-4.964,16.96-7.07
						c6.937-2.105,15.612-3.818,26.025-5.147c10.413-1.328,23.435-2.028,38.98-2.104c15.258-0.076,29.567,0.409,42.969,1.454
						c13.361,1.04,25.153,2.602,35.335,4.678c10.141,2.076,18.423,4.644,24.806,7.696c6.342,3.06,10.122,6.562,11.34,10.509
						l44.452,0.45c3.226,0.02,6.081,0.282,8.522,0.789c2.484,0.507,3.686,1.146,3.689,1.923l0.018,3.66l-57.146-0.551
						c-2.004,4.483-7.111,8.583-15.322,12.302c-8.169,3.723-18.614,6.943-31.336,9.668l-20.812-2.896
						c-1.862-0.283-3.394-0.646-4.595-1.087c-1.202-0.437-1.783-0.912-1.785-1.431c-0.004-0.704,1.606-1.507,4.826-2.407
						c3.221-0.905,6.854-2.024,10.9-3.357c4.045-1.329,8.008-2.901,11.926-4.716c3.879-1.811,6.473-3.976,7.824-6.497
						l-134.885-1.338c-3.544,2.608-7.542,5.169-11.913,7.686c-4.412,2.518-10.23,4.785-17.497,6.797
						c-7.268,2.013-16.316,3.645-27.143,4.903c-10.868,1.255-24.469,1.922-40.925,2.002c-12.363,0.061-24.398-0.408-36.188-1.403
						c-11.789-0.998-22.257-2.49-31.405-4.476c-9.147-1.99-16.644-4.449-22.529-7.376c-5.845-2.932-9.127-6.297-9.808-10.103
						l-36.596-0.375c-3.225-0.02-6.08-0.272-8.646-0.761c-2.525-0.489-3.809-1.137-3.814-1.949l-0.018-3.661l50.035,0.476
						c2.213-3.856,6.745-7.218,13.678-10.078c6.932-2.863,15.397-5.41,25.392-7.638l16.757,2.301
						c5.089,0.715,7.615,1.551,7.62,2.512c0.003,0.519-1.028,1.16-3.133,1.929c-2.146,0.77-4.622,1.688-7.512,2.755
						c-2.848,1.069-5.653,2.32-8.334,3.759c-2.722,1.435-4.74,3.061-6.095,4.882L1105.969,2628.82z M982.526,2633.808
						c1.005,2.401,3.247,4.466,6.646,6.204c3.399,1.744,7.624,3.172,12.715,4.294c5.091,1.12,10.802,1.942,17.131,2.466
						c6.37,0.524,13.028,0.771,19.974,0.737c8.105-0.039,15.173-0.39,21.206-1.047c5.992-0.661,11.281-1.554,15.866-2.686
						c4.543-1.133,8.546-2.443,11.93-3.94c3.383-1.497,6.394-3.118,9.115-4.869L982.526,2633.808z M1276.169,2630.534
						c-1.005-2.432-3.455-4.563-7.268-6.395c-3.814-1.828-8.699-3.37-14.619-4.613c-5.918-1.249-12.829-2.176-20.728-2.783
						c-7.86-0.606-16.545-0.889-26.054-0.842c-8.436,0.041-15.752,0.42-21.827,1.131c-6.074,0.716-11.362,1.672-15.863,2.881
						c-4.459,1.205-8.298,2.609-11.392,4.213c-3.135,1.604-6.063,3.319-8.74,5.147L1276.169,2630.534z"/>
				</g>
				
					<linearGradient id="SVGID_00000122681840037821489180000008571428687161410953_" gradientUnits="userSpaceOnUse" x1="518.1644" y1="1442.4657" x2="532.8192" y2="1565.1475" gradientTransform="matrix(-1 0 0 -1 1669.249 4127.8389)">
					<stop  offset="0.0036" style="stop-color:#F36F56"/>
					<stop  offset="0.3059" style="stop-color:#F99C4C"/>
					<stop  offset="0.545" style="stop-color:#FDB946"/>
					<stop  offset="0.6817" style="stop-color:#FFC444"/>
					<stop  offset="0.8038" style="stop-color:#FFC244"/>
					<stop  offset="0.8667" style="stop-color:#FEBA46"/>
					<stop  offset="0.916" style="stop-color:#FCAD49"/>
					<stop  offset="0.958" style="stop-color:#F99A4D"/>
					<stop  offset="0.9955" style="stop-color:#F58152"/>
					<stop  offset="1" style="stop-color:#F57E53"/>
				</linearGradient>
				<path style="fill:url(#SVGID_00000122681840037821489180000008571428687161410953_);" d="M1143.328,2580.277
					c-176.027,0-359.31,15.49-388.627,45.474c1.147,1.059,2.213,2.187,3.204,3.374c24.711-20.819,176.052-41.779,385.423-41.779
					c214.746,0,368.514,22.052,387.14,43.384c0.915-1.17,1.893-2.289,2.952-3.344
					C1509.206,2596.34,1322.482,2580.277,1143.328,2580.277z"/>
			</g>
			<g>
				
					<linearGradient id="SVGID_00000146491661649575557220000013664025105020660894_" gradientUnits="userSpaceOnUse" x1="775.6892" y1="2603.656" x2="1684.04" y2="2603.656">
					<stop  offset="0" style="stop-color:#FCB148"/>
					<stop  offset="0.0521" style="stop-color:#FDBA46"/>
					<stop  offset="0.1424" style="stop-color:#FFC244"/>
					<stop  offset="0.3183" style="stop-color:#FFC444"/>
					<stop  offset="0.4849" style="stop-color:#FDB946"/>
					<stop  offset="0.7754" style="stop-color:#F99C4D"/>
					<stop  offset="0.8658" style="stop-color:#F8924F"/>
					<stop  offset="1" style="stop-color:#F8924F"/>
				</linearGradient>
				<path style="fill:url(#SVGID_00000146491661649575557220000013664025105020660894_);" d="M843.188,2534.258v87.565
					c0,28.294,176.751,51.231,394.785,51.231c218.033,0,394.783-22.937,394.783-51.231v-87.565H843.188z"/>
				
					<linearGradient id="SVGID_00000005945492284191388300000014053843721221574799_" gradientUnits="userSpaceOnUse" x1="1234.0391" y1="2501.3335" x2="1281.9265" y2="2902.2209">
					<stop  offset="0" style="stop-color:#FFDB44"/>
					<stop  offset="1" style="stop-color:#FEEF06"/>
				</linearGradient>
				
					<ellipse style="fill:url(#SVGID_00000005945492284191388300000014053843721221574799_);" cx="1237.972" cy="2534.257" rx="394.784" ry="51.232"/>
				
					<linearGradient id="SVGID_00000128443815990692802960000003844962879911024298_" gradientUnits="userSpaceOnUse" x1="1231.9574" y1="2483.4553" x2="1246.6644" y2="2606.5745">
					<stop  offset="0" style="stop-color:#FFDB44"/>
					<stop  offset="1" style="stop-color:#FEEF06"/>
				</linearGradient>
				<path style="fill:url(#SVGID_00000128443815990692802960000003844962879911024298_);" d="M1237.971,2589.022
					c-193.095,0-395.012-18.443-395.012-54.017c0-1.954,0.697-5.387,2.65-5.387c1.954,0,1.114,2.686,1.114,4.64
					c0,22.56,160.681,47.696,391.249,47.696s391.249-25.136,391.249-47.696c0-1.954,0.334-3.785,2.287-3.785
					c1.954,0,1.483,2.607,1.483,4.561C1632.989,2570.607,1431.067,2589.022,1237.971,2589.022z"/>
				<g>
					<path style="fill:#FCB048;" d="M1200.667,2537.113c3.873-2.682,7.995-5.325,12.407-7.937c4.37-2.607,10.064-4.964,16.96-7.07
						c6.936-2.105,15.611-3.818,26.025-5.147c10.413-1.328,23.434-2.028,38.98-2.104c15.258-0.074,29.567,0.41,42.969,1.455
						c13.36,1.04,25.153,2.603,35.334,4.678c10.142,2.076,18.423,4.644,24.807,7.696c6.341,3.06,10.121,6.562,11.339,10.509
						l44.451,0.45c3.226,0.021,6.08,0.282,8.522,0.789c2.484,0.507,3.686,1.146,3.689,1.923l0.018,3.66l-57.146-0.551
						c-2.004,4.483-7.111,8.583-15.322,12.302c-8.168,3.723-18.614,6.943-31.336,9.668l-20.813-2.895
						c-1.861-0.284-3.393-0.647-4.594-1.088c-1.202-0.437-1.783-0.912-1.785-1.431c-0.003-0.704,1.606-1.507,4.826-2.407
						c3.222-0.905,6.854-2.023,10.9-3.357c4.045-1.329,8.008-2.901,11.926-4.716c3.879-1.811,6.473-3.976,7.825-6.497
						l-134.886-1.337c-3.543,2.608-7.541,5.168-11.912,7.685c-4.411,2.518-10.231,4.785-17.497,6.797
						c-7.268,2.013-16.316,3.645-27.143,4.903c-10.869,1.254-24.469,1.922-40.925,2.002c-12.364,0.061-24.398-0.409-36.188-1.402
						c-11.789-0.999-22.258-2.49-31.405-4.477c-9.147-1.99-16.644-4.449-22.529-7.376c-5.844-2.932-9.128-6.297-9.809-10.103
						l-36.595-0.375c-3.226-0.021-6.08-0.272-8.646-0.761c-2.525-0.489-3.81-1.137-3.814-1.949l-0.018-3.661l50.035,0.476
						c2.213-3.856,6.745-7.218,13.679-10.077c6.931-2.864,15.397-5.411,25.391-7.639l16.758,2.301
						c5.089,0.715,7.615,1.551,7.62,2.513c0.002,0.518-1.028,1.16-3.133,1.928c-2.147,0.77-4.623,1.688-7.512,2.755
						c-2.848,1.069-5.653,2.321-8.334,3.759c-2.722,1.435-4.74,3.061-6.095,4.882L1200.667,2537.113z M1077.224,2542.101
						c1.005,2.401,3.247,4.466,6.647,6.204c3.398,1.745,7.623,3.172,12.715,4.294c5.091,1.12,10.802,1.942,17.13,2.466
						c6.371,0.524,13.029,0.771,19.975,0.737c8.104-0.039,15.173-0.39,21.206-1.047c5.992-0.661,11.28-1.554,15.865-2.686
						c4.544-1.133,8.547-2.442,11.93-3.94c3.383-1.496,6.394-3.118,9.114-4.869L1077.224,2542.101z M1370.866,2538.828
						c-1.004-2.432-3.454-4.564-7.267-6.396c-3.814-1.828-8.7-3.369-14.619-4.613c-5.919-1.249-12.829-2.176-20.729-2.783
						c-7.86-0.606-16.545-0.889-26.053-0.842c-8.436,0.041-15.753,0.42-21.827,1.132c-6.075,0.716-11.362,1.671-15.863,2.88
						c-4.459,1.205-8.298,2.609-11.392,4.213c-3.135,1.604-6.062,3.32-8.741,5.147L1370.866,2538.828z"/>
				</g>
				
					<linearGradient id="SVGID_00000121968512660415108650000005580013729595735712_" gradientUnits="userSpaceOnUse" x1="423.4669" y1="1534.1727" x2="438.1216" y2="1656.8545" gradientTransform="matrix(-1 0 0 -1 1669.249 4127.8389)">
					<stop  offset="0.0036" style="stop-color:#F36F56"/>
					<stop  offset="0.3059" style="stop-color:#F99C4C"/>
					<stop  offset="0.545" style="stop-color:#FDB946"/>
					<stop  offset="0.6817" style="stop-color:#FFC444"/>
					<stop  offset="0.8038" style="stop-color:#FFC244"/>
					<stop  offset="0.8667" style="stop-color:#FEBA46"/>
					<stop  offset="0.916" style="stop-color:#FCAD49"/>
					<stop  offset="0.958" style="stop-color:#F99A4D"/>
					<stop  offset="0.9955" style="stop-color:#F58152"/>
					<stop  offset="1" style="stop-color:#F57E53"/>
				</linearGradient>
				<path style="fill:url(#SVGID_00000121968512660415108650000005580013729595735712_);" d="M1238.026,2488.57
					c-176.027,0-359.31,15.49-388.628,45.474c1.147,1.059,2.213,2.187,3.204,3.374c24.711-20.818,176.052-41.779,385.423-41.779
					c214.746,0,368.514,22.053,387.14,43.384c0.915-1.17,1.892-2.289,2.952-3.344
					C1603.903,2504.633,1417.18,2488.57,1238.026,2488.57z"/>
			</g>
			<g>
				
					<linearGradient id="SVGID_00000097501432182441800820000015621278644311662008_" gradientUnits="userSpaceOnUse" x1="726.4341" y1="2511.6799" x2="1634.7839" y2="2511.6799">
					<stop  offset="0" style="stop-color:#FCB148"/>
					<stop  offset="0.0521" style="stop-color:#FDBA46"/>
					<stop  offset="0.1424" style="stop-color:#FFC244"/>
					<stop  offset="0.3183" style="stop-color:#FFC444"/>
					<stop  offset="0.4849" style="stop-color:#FDB946"/>
					<stop  offset="0.7754" style="stop-color:#F99C4D"/>
					<stop  offset="0.8658" style="stop-color:#F8924F"/>
					<stop  offset="1" style="stop-color:#F8924F"/>
				</linearGradient>
				<path style="fill:url(#SVGID_00000097501432182441800820000015621278644311662008_);" d="M793.933,2442.281v87.565
					c0,28.295,176.751,51.233,394.784,51.233c218.033,0,394.783-22.938,394.783-51.233v-87.565H793.933z"/>
				
					<linearGradient id="SVGID_00000155113051732498092490000008480883900294808999_" gradientUnits="userSpaceOnUse" x1="1184.7834" y1="2409.3577" x2="1232.6709" y2="2810.2458">
					<stop  offset="0" style="stop-color:#FFDB44"/>
					<stop  offset="1" style="stop-color:#FEEF06"/>
				</linearGradient>
				
					<ellipse style="fill:url(#SVGID_00000155113051732498092490000008480883900294808999_);" cx="1188.717" cy="2442.281" rx="394.784" ry="51.232"/>
				
					<linearGradient id="SVGID_00000074432766151837278140000016844864250034706079_" gradientUnits="userSpaceOnUse" x1="1182.7014" y1="2391.4797" x2="1197.4083" y2="2514.5979">
					<stop  offset="0" style="stop-color:#FFDB44"/>
					<stop  offset="1" style="stop-color:#FEEF06"/>
				</linearGradient>
				<path style="fill:url(#SVGID_00000074432766151837278140000016844864250034706079_);" d="M1188.715,2497.045
					c-193.095,0-395.012-18.443-395.012-54.016c0-1.954,0.697-5.387,2.65-5.387c1.954,0,1.114,2.686,1.114,4.639
					c0,22.56,160.681,47.696,391.249,47.696c230.568,0,391.249-25.136,391.249-47.696c0-1.954,0.334-3.784,2.287-3.784
					c1.954,0,1.483,2.608,1.483,4.561C1583.734,2478.631,1381.811,2497.045,1188.715,2497.045z"/>
				<g>
					<path style="fill:#FCB048;" d="M1151.411,2445.137c3.873-2.683,7.996-5.325,12.407-7.937c4.37-2.608,10.065-4.965,16.96-7.07
						c6.936-2.105,15.612-3.818,26.025-5.147c10.413-1.328,23.434-2.028,38.981-2.104c15.257-0.075,29.566,0.41,42.968,1.454
						c13.361,1.04,25.153,2.602,35.335,4.679c10.141,2.075,18.423,4.644,24.807,7.695c6.341,3.061,10.121,6.562,11.339,10.51
						l44.452,0.45c3.226,0.02,6.081,0.281,8.522,0.788c2.484,0.508,3.686,1.146,3.689,1.924l0.018,3.659l-57.146-0.549
						c-2.004,4.482-7.111,8.583-15.322,12.301c-8.169,3.723-18.614,6.943-31.336,9.668l-20.812-2.896
						c-1.862-0.284-3.394-0.646-4.595-1.087c-1.202-0.437-1.783-0.913-1.785-1.431c-0.004-0.705,1.606-1.507,4.826-2.407
						c3.221-0.904,6.854-2.024,10.9-3.358c4.045-1.328,8.008-2.9,11.927-4.715c3.878-1.811,6.472-3.977,7.823-6.497l-134.885-1.338
						c-3.544,2.607-7.542,5.168-11.912,7.686c-4.412,2.518-10.231,4.785-17.498,6.797c-7.268,2.012-16.316,3.645-27.143,4.903
						c-10.868,1.253-24.469,1.921-40.925,2.001c-12.363,0.061-24.399-0.407-36.187-1.402c-11.789-0.998-22.258-2.491-31.406-4.477
						c-9.147-1.991-16.644-4.449-22.529-7.377c-5.845-2.931-9.127-6.296-9.808-10.102l-36.596-0.375
						c-3.226-0.02-6.08-0.272-8.646-0.762c-2.524-0.488-3.809-1.137-3.814-1.948l-0.018-3.661l50.035,0.476
						c2.213-3.856,6.745-7.218,13.679-10.077c6.932-2.865,15.396-5.411,25.392-7.639l16.757,2.301
						c5.089,0.715,7.615,1.551,7.62,2.513c0.003,0.519-1.028,1.16-3.133,1.929c-2.146,0.769-4.622,1.688-7.511,2.754
						c-2.848,1.071-5.654,2.321-8.335,3.76c-2.722,1.435-4.74,3.06-6.095,4.881L1151.411,2445.137z M1027.968,2450.125
						c1.005,2.401,3.247,4.466,6.647,6.204c3.399,1.744,7.623,3.172,12.715,4.293c5.091,1.122,10.802,1.941,17.131,2.466
						c6.37,0.524,13.028,0.771,19.974,0.737c8.104-0.04,15.173-0.391,21.206-1.047c5.992-0.661,11.282-1.554,15.866-2.686
						c4.542-1.133,8.546-2.443,11.93-3.941c3.382-1.497,6.393-3.119,9.114-4.869L1027.968,2450.125z M1321.61,2446.851
						c-1.004-2.432-3.454-4.564-7.267-6.395c-3.814-1.828-8.699-3.37-14.619-4.613c-5.918-1.249-12.829-2.176-20.728-2.782
						c-7.86-0.607-16.544-0.889-26.054-0.843c-8.435,0.042-15.752,0.42-21.826,1.132c-6.075,0.716-11.363,1.672-15.864,2.881
						c-4.459,1.204-8.298,2.609-11.392,4.212c-3.135,1.604-6.062,3.32-8.74,5.148L1321.61,2446.851z"/>
				</g>
				
					<linearGradient id="SVGID_00000051354201422883067680000015088797053963355023_" gradientUnits="userSpaceOnUse" x1="472.7225" y1="1626.1487" x2="487.3772" y2="1748.8303" gradientTransform="matrix(-1 0 0 -1 1669.249 4127.8389)">
					<stop  offset="0.0036" style="stop-color:#F36F56"/>
					<stop  offset="0.3059" style="stop-color:#F99C4C"/>
					<stop  offset="0.545" style="stop-color:#FDB946"/>
					<stop  offset="0.6817" style="stop-color:#FFC444"/>
					<stop  offset="0.8038" style="stop-color:#FFC244"/>
					<stop  offset="0.8667" style="stop-color:#FEBA46"/>
					<stop  offset="0.916" style="stop-color:#FCAD49"/>
					<stop  offset="0.958" style="stop-color:#F99A4D"/>
					<stop  offset="0.9955" style="stop-color:#F58152"/>
					<stop  offset="1" style="stop-color:#F57E53"/>
				</linearGradient>
				<path style="fill:url(#SVGID_00000051354201422883067680000015088797053963355023_);" d="M1188.769,2396.594
					c-176.027,0-359.31,15.49-388.627,45.474c1.147,1.058,2.214,2.187,3.204,3.375c24.711-20.819,176.052-41.779,385.423-41.779
					c214.746,0,368.514,22.053,387.14,43.384c0.915-1.17,1.893-2.29,2.953-3.344
					C1554.648,2412.657,1367.924,2396.594,1188.769,2396.594z"/>
			</g>
			<g>
				
					<linearGradient id="SVGID_00000158001381639615345270000000022273258432576690_" gradientUnits="userSpaceOnUse" x1="1860.1597" y1="2076.8044" x2="2768.5139" y2="2076.8044" gradientTransform="matrix(0.5796 0.8149 -0.8149 0.5796 2214.3765 -230.3409)">
					<stop  offset="0" style="stop-color:#FCB148"/>
					<stop  offset="0.0521" style="stop-color:#FDBA46"/>
					<stop  offset="0.1424" style="stop-color:#FFC244"/>
					<stop  offset="0.3183" style="stop-color:#FFC444"/>
					<stop  offset="0.4849" style="stop-color:#FDB946"/>
					<stop  offset="0.7754" style="stop-color:#F99C4D"/>
					<stop  offset="0.8658" style="stop-color:#F8924F"/>
					<stop  offset="1" style="stop-color:#F8924F"/>
				</linearGradient>
				<path style="fill:url(#SVGID_00000158001381639615345270000000022273258432576690_);" d="M1695.797,2504.011l-71.356,50.755
					c-23.057,16.401,60.701,173.726,187.079,351.397c126.378,177.671,247.519,308.408,270.577,292.007l71.355-50.754
					L1695.797,2504.011z"/>
				
					<linearGradient id="SVGID_00000052079941538813077760000001538746565917736084_" gradientUnits="userSpaceOnUse" x1="2318.5103" y1="1974.4924" x2="2366.3918" y2="2375.3311" gradientTransform="matrix(0.5796 0.8149 -0.8149 0.5796 2214.3765 -230.3409)">
					<stop  offset="0" style="stop-color:#FFDB44"/>
					<stop  offset="1" style="stop-color:#FEEF06"/>
				</linearGradient>
				<path style="fill:url(#SVGID_00000052079941538813077760000001538746565917736084_);" d="M2153.452,3147.415
					c-23.057,16.4-144.198-114.335-270.576-292.006c-126.378-177.671-210.136-334.997-187.079-351.398
					c23.057-16.401,144.198,114.335,270.576,292.006C2092.75,2973.689,2176.508,3131.015,2153.452,3147.415z"/>
				
					<linearGradient id="SVGID_00000084515029008126843340000017765297925893712546_" gradientUnits="userSpaceOnUse" x1="2316.4285" y1="1956.6233" x2="2331.1328" y2="2079.7209" gradientTransform="matrix(0.5796 0.8149 -0.8149 0.5796 2214.3765 -230.3409)">
					<stop  offset="0" style="stop-color:#FFDB44"/>
					<stop  offset="1" style="stop-color:#FEEF06"/>
				</linearGradient>
				<path style="fill:url(#SVGID_00000084515029008126843340000017765297925893712546_);" d="M1879.996,2857.456
					c-111.923-157.35-213.931-332.579-184.943-353.198c1.592-1.132,4.794-2.554,5.927-0.962c1.132,1.592-1.544,2.464-3.136,3.597
					c-18.384,13.076,54.269,158.582,187.912,346.467s247.261,304.252,265.645,291.175c1.592-1.132,3.277-1.921,4.409-0.329
					c1.132,1.592-1.266,2.719-2.857,3.851C2123.966,3168.675,1991.92,3014.806,1879.996,2857.456z"/>
				<g>
					<path style="fill:#FCB048;" d="M1900.674,2796.969c4.43,1.601,8.973,3.429,13.658,5.509c4.658,2.05,9.88,5.325,15.592,9.723
						c5.736,4.432,12.159,10.507,19.277,18.224c7.119,7.716,15.236,17.92,24.31,30.545c8.905,12.389,16.803,24.331,23.721,35.858
						c6.897,11.49,12.459,22.004,16.669,31.505c4.185,9.467,6.893,17.704,8.107,24.674c1.181,6.942,0.519,12.051-1.992,15.333
						l25.399,36.483c1.853,2.64,3.295,5.118,4.297,7.402c1.026,2.318,1.202,3.667,0.571,4.121l-2.972,2.136l-32.675-46.886
						c-4.814,0.965-11.116-0.821-18.905-5.355c-7.768-4.498-16.446-11.144-26.041-19.932l-9.705-18.637
						c-0.847-1.682-1.44-3.141-1.777-4.375c-0.341-1.232-0.29-1.981,0.131-2.284c0.572-0.41,2.159,0.435,4.76,2.539
						c2.604,2.099,5.621,4.412,9.053,6.935c3.428,2.527,7.006,4.844,10.756,6.986c3.723,2.11,6.992,2.969,9.829,2.61
						l-77.094-110.691c-4.179-1.375-8.584-3.15-13.168-5.252c-4.608-2.136-9.829-5.563-15.682-10.319
						c-5.851-4.756-12.427-11.183-19.727-19.275c-7.322-8.13-15.748-18.827-25.354-32.189c-7.214-10.04-13.808-20.119-19.832-30.301
						c-6.02-10.187-10.871-19.582-14.555-28.187c-3.681-8.609-6.022-16.143-7.048-22.635c-0.998-6.463-0.16-11.087,2.547-13.848
						l-20.905-30.038c-1.853-2.64-3.303-5.112-4.391-7.487c-1.066-2.34-1.282-3.763-0.623-4.238l2.972-2.136l28.613,41.05
						c4.425-0.431,9.792,1.312,16.141,5.305c6.351,3.989,13.332,9.41,20.943,16.263l7.838,14.989
						c2.366,4.562,3.15,7.105,2.369,7.666c-0.422,0.303-1.542-0.165-3.388-1.435c-1.87-1.303-4.055-2.788-6.598-4.525
						c-2.523-1.701-5.168-3.262-7.895-4.612c-2.748-1.387-5.242-2.089-7.511-2.137L1900.674,2796.969z M1825.059,2699.269
						c-1.375,2.209-1.758,5.234-1.204,9.012c0.55,3.78,1.835,8.05,3.872,12.849c2.038,4.798,4.679,9.927,7.92,15.388
						c3.266,5.495,6.923,11.064,10.978,16.705c4.729,6.581,9.113,12.139,13.145,16.674c4.012,4.5,7.805,8.292,11.385,11.37
						c3.556,3.046,6.945,5.549,10.126,7.439c3.181,1.889,6.247,3.403,9.25,4.605L1825.059,2699.269z M1997.928,2936.656
						c1.4-2.228,1.717-5.461,1-9.63c-0.722-4.166-2.298-9.043-4.715-14.585c-2.414-5.547-5.662-11.716-9.747-18.505
						c-4.062-6.757-8.865-13.998-14.415-21.72c-4.923-6.849-9.473-12.592-13.574-17.13c-4.103-4.535-7.947-8.29-11.542-11.257
						c-3.566-2.937-6.936-5.251-10.035-6.842c-3.125-1.625-6.22-3.015-9.261-4.139L1997.928,2936.656z"/>
				</g>
				
					<linearGradient id="SVGID_00000057847174697539618380000010420281808873140415_" gradientUnits="userSpaceOnUse" x1="-660.4354" y1="2060.5742" x2="-645.7833" y2="2183.2334" gradientTransform="matrix(-0.5796 -0.8149 0.8149 -0.5796 -181.2018 3522.6223)">
					<stop  offset="0.0036" style="stop-color:#F36F56"/>
					<stop  offset="0.3059" style="stop-color:#F99C4C"/>
					<stop  offset="0.545" style="stop-color:#FDB946"/>
					<stop  offset="0.6817" style="stop-color:#FFC444"/>
					<stop  offset="0.8038" style="stop-color:#FFC244"/>
					<stop  offset="0.8667" style="stop-color:#FEBA46"/>
					<stop  offset="0.916" style="stop-color:#FCAD49"/>
					<stop  offset="0.958" style="stop-color:#F99A4D"/>
					<stop  offset="0.9955" style="stop-color:#F58152"/>
					<stop  offset="1" style="stop-color:#F57E53"/>
				</linearGradient>
				<path style="fill:url(#SVGID_00000057847174697539618380000010420281808873140415_);" d="M1961.884,2799.276
					c-102.03-143.442-220.888-283.818-262.316-290.328c-0.196,1.548-0.498,3.072-0.892,4.567
					c31.288,8.07,136.09,119.245,257.448,289.859c124.473,174.993,195.63,313.077,189.043,340.62
					c1.484,0.067,2.964,0.215,4.437,0.468C2160.868,3106.733,2065.727,2945.265,1961.884,2799.276z"/>
			</g>
		</g>
		<g>
			
				<linearGradient id="SVGID_00000147221103006286032310000005327672007488319910_" gradientUnits="userSpaceOnUse" x1="-2549.1941" y1="2113.5127" x2="-2339.4658" y2="2113.5127" gradientTransform="matrix(-1 0 0 1 -1104.5378 0)">
				<stop  offset="0" style="stop-color:#FF9085"/>
				<stop  offset="1" style="stop-color:#FB6FBB"/>
			</linearGradient>
			<path style="fill:url(#SVGID_00000147221103006286032310000005327672007488319910_);" d="M1269.967,1895.863
				c26.407-7.713,61.698,40.774,91.037,81.083c43.892,60.303,95.174,130.759,81.359,215.361
				c-13.592,83.235-84.951,148.06-105.287,138.788c-17.394-7.931,16.049-63.913-9.571-138.788
				c-20.673-60.417-54.926-60.439-77.897-119.674C1221.098,1999.119,1237.481,1905.352,1269.967,1895.863z"/>
			
				<linearGradient id="SVGID_00000018228828305221145040000012210040139361757058_" gradientUnits="userSpaceOnUse" x1="-1908.7772" y1="2507.2944" x2="-1502.0702" y2="2507.2944" gradientTransform="matrix(-1 0 0 1 -102.9487 0)">
				<stop  offset="0" style="stop-color:#311944"/>
				<stop  offset="1" style="stop-color:#A03976"/>
			</linearGradient>
			<path style="fill:url(#SVGID_00000018228828305221145040000012210040139361757058_);" d="M1283.033,2279.254
				c136.005,33.019,225.589,86.023,277.909,123.515c28.354,20.32,41.452,32.993,48.523,51.465
				c40.288,105.268-166.699,264.433-188.758,281.101c-9.636-22.466-19.27-44.932-28.904-67.399
				c21.388-117.396,56.996-154.225,86.794-165.178c8.335-3.064,22.328-6.349,22.056-10.293
				c-0.642-9.327-79.261,3.964-154.394-23.526c-74.918-27.413-150.188-96.773-136.748-142.63
				C1211.966,2317.938,1222.242,2293.74,1283.033,2279.254z"/>
			
				<linearGradient id="SVGID_00000088826205217304692180000013738662881795605404_" gradientUnits="userSpaceOnUse" x1="4892.2056" y1="2009.4965" x2="4909.7852" y2="2325.9307" gradientTransform="matrix(0.9565 0.2918 -0.2918 0.9565 -2636.6191 -392.2555)">
				<stop  offset="0" style="stop-color:#444B8C"/>
				<stop  offset="0.9964" style="stop-color:#26264F"/>
			</linearGradient>
			<path style="fill:url(#SVGID_00000088826205217304692180000013738662881795605404_);" d="M1414.913,3048.688
				c0,0-12.661,4.51-12.707,14.522c-0.047,10.011,12.823,54.116,26.806,69.786c13.981,15.67,15.232-7.708,14.367-22.769
				c-0.864-15.061-4.53-48.772-7.987-55.292C1431.934,3048.42,1414.913,3048.688,1414.913,3048.688z"/>
			
				<linearGradient id="SVGID_00000033369662775201836000000016020755756012848542_" gradientUnits="userSpaceOnUse" x1="-1717.5989" y1="2522.5964" x2="-1310.8922" y2="2522.5964" gradientTransform="matrix(-1 0 0 1 -102.9487 0)">
				<stop  offset="0" style="stop-color:#311944"/>
				<stop  offset="1" style="stop-color:#A03976"/>
			</linearGradient>
			<path style="fill:url(#SVGID_00000033369662775201836000000016020755756012848542_);" d="M1455.562,2433.158
				c24.712-0.485,82.611-5.096,98.027,23.526c12.86,23.88-9.67,60.079-23.528,82.343c-37.671,60.53-74.234,66.721-99.988,103.91
				c-9.968,14.395-19,34.501-21.875,63.228c-5.466-12.744-10.931-25.487-16.395-38.23c21.388-117.394,56.996-154.225,86.794-165.177
				c8.335-3.064,22.328-6.349,22.056-10.293c-0.642-9.328-79.261,3.964-154.394-23.526
				c-68.293-24.989-136.649-84.785-138.064-129.91C1316.338,2416.594,1397.731,2434.292,1455.562,2433.158z"/>
			
				<linearGradient id="SVGID_00000014618531408233429940000008910289887656351660_" gradientUnits="userSpaceOnUse" x1="1407.5972" y1="3053.8162" x2="1434.0438" y2="3053.8162">
				<stop  offset="0" style="stop-color:#FFC444"/>
				<stop  offset="0.9964" style="stop-color:#F36F56"/>
			</linearGradient>
			<path style="fill:url(#SVGID_00000014618531408233429940000008910289887656351660_);" d="M1407.597,3006.145
				c0.746,15.429,2.056,28.329,3.236,37.908c2.612,21.193,5.015,29.579,8.304,37.218c2.87,6.655,10.042,21.174,13.466,20.167
				c3.48-1.021-0.1-17.106-2.81-61.842c-0.394-6.493-1.59-27.164-1.59-27.164l0,0L1407.597,3006.145z"/>
			
				<linearGradient id="SVGID_00000065792312122744842590000001096403700639154570_" gradientUnits="userSpaceOnUse" x1="-1691.61" y1="2254.7739" x2="-1326.9469" y2="2697.8589" gradientTransform="matrix(-1 0 0 1 -102.9487 0)">
				<stop  offset="0" style="stop-color:#311944"/>
				<stop  offset="1" style="stop-color:#A03976"/>
			</linearGradient>
			<path style="fill:url(#SVGID_00000065792312122744842590000001096403700639154570_);" d="M1204.611,2288.077
				c78.361,47.245,129.23,100.963,158.805,137.239c34.913,42.823,88.02,107.963,107.246,205.092
				c10.25,51.772,5.206,98.213-5.298,188.979c-10.434,90.149-25.389,163.545-37.089,213.67c-6.025,2.419-12.051,4.839-18.075,7.257
				c-16.141-29.654-37.254-76.596-44.823-136.623c-12.383-98.21,24.357-129.418,6.722-199.067
				c-15.276-60.335-59.539-97.33-148.064-171.32c-72.734-60.791-139.8-96.857-164.694-172.683
				c-4.229-12.876-7.821-28.672-0.93-43.135C1073.262,2286.317,1130.089,2275.441,1204.611,2288.077z"/>
			
				<linearGradient id="SVGID_00000047056920591839911940000013585395614243158696_" gradientUnits="userSpaceOnUse" x1="-661.6323" y1="1586.0491" x2="-1143.9307" y2="1989.9257" gradientTransform="matrix(-0.9987 -0.0509 -0.0509 0.9987 -8.7567 27.2223)">
				<stop  offset="0" style="stop-color:#311944"/>
				<stop  offset="1" style="stop-color:#6B3976"/>
			</linearGradient>
			<path style="fill:url(#SVGID_00000047056920591839911940000013585395614243158696_);" d="M1142.058,1901.481
				c20.34-4.375,53.789-3.506,85.678-28.618c9.601-7.56,43.61-34.342,39.48-72.661c-3.635-33.735-35.608-51.865-39.532-54.024
				c-22.635-12.458-45.2-9.689-70.226-6.267c-32.452,4.437-43.231,13.302-65.781,19.382c-55.787,15.037-74.653-16.35-130.82-13.701
				c-71.788,3.384-77.998,56.402-138.397,57.725c-67.806,1.484-80.8-64.876-147.746-76.12
				c-92.923-15.606-233.518,84.427-230.687,199.745c1.635,66.604,51.23,142.934,114.577,165.85
				c36.924,13.357,76.767,9.115,88.14,33.126c8.094,17.087-10.102,30.253-8.382,60.026c2.211,38.384,35.259,65.319,40.595,69.668
				c49.537,40.378,160.601,19.981,236.443-37.152C1052.167,2115.43,1031.469,1925.275,1142.058,1901.481z"/>
			
				<linearGradient id="SVGID_00000080165528820088756980000006938641033695711382_" gradientUnits="userSpaceOnUse" x1="960.0632" y1="2267.9087" x2="1351.7423" y2="1915.7563">
				<stop  offset="0" style="stop-color:#FF9085"/>
				<stop  offset="1" style="stop-color:#FB6FBB"/>
			</linearGradient>
			<path style="fill:url(#SVGID_00000080165528820088756980000006938641033695711382_);" d="M984.962,1887.79
				c46.065-5.676,99.196-9.996,158.237-10.798c124.757-1.694,142.616,14.124,147.186,25.836c8.52,21.829-6.074,32.771,2.213,70.835
				c4.955,22.759,0.271,33.131,9.851,57.584c9.336,23.832,2.013,36.645-6.242,92.526c-10.555,71.457-15.425,107.774,4.571,136.58
				c13.893,20.015,29.438,21.71,27.957,31.218c-3.156,20.256-73.192,9.084-161.864,47.971
				c-25.669,11.255-49.296,25.128-69.109,36.761c-46.395,27.237-54.978,37.654-76.462,49.993
				c-67.945,39.029-170.008,42.79-223.503-4.411c-19.943-17.597-34.478-43.466-27.938-52.934
				c8.906-12.892,48.735,16.392,85.284-1.471c24.212-11.834,19.612-30.979,47.605-53.535c33.688-27.147,57.11-12.923,80.04-30.587
				c35.769-27.554,19.497-93.527,9.456-204.137C988.086,2033.429,983.917,1968.044,984.962,1887.79z"/>
			
				<linearGradient id="SVGID_00000078031377939823565640000005068022405634701953_" gradientUnits="userSpaceOnUse" x1="1072.3463" y1="1863.676" x2="1210.4435" y2="1863.676">
				<stop  offset="0" style="stop-color:#FFC444"/>
				<stop  offset="0.9964" style="stop-color:#F36F56"/>
			</linearGradient>
			<path style="fill:url(#SVGID_00000078031377939823565640000005068022405634701953_);" d="M1119.974,1862.093
				c-17.015,10.555-44.52,24.352-47.55,28.097c-3.029,3.74,83.326,18.527,137.059-8.588c0,0,8.33-4.627-24.063-11.106
				c-6.902-1.381-5.553-14.808-4.628-28.69l-6.478-12.031C1174.314,1829.774,1136.986,1851.531,1119.974,1862.093z"/>
			
				<linearGradient id="SVGID_00000105421932954089495260000002318895682295037597_" gradientUnits="userSpaceOnUse" x1="1201.728" y1="1790.7114" x2="982.1936" y2="2844.4756">
				<stop  offset="0" style="stop-color:#FFC444"/>
				<stop  offset="0.9964" style="stop-color:#F36F56"/>
			</linearGradient>
			<path style="fill:url(#SVGID_00000105421932954089495260000002318895682295037597_);" d="M1162.899,1821.6
				c0,0-6.675,28.315,18.262,42.31c22.329,12.533,60.105-38.839,53.049-57.93c-2.353-6.368-10.761-14.553-19.549-17.304
				c-6.18-1.936-29.566-1.189-39.582,18.5c-2.624-5.757-7.321-8.774-10.478-7.828c-4.005,1.197-4.593,8.488-4.729,10.138
				C1159.409,1815.211,1161.719,1819.652,1162.899,1821.6z"/>
			
				<linearGradient id="SVGID_00000000912321952651898060000000007969619643245495_" gradientUnits="userSpaceOnUse" x1="972.9307" y1="2282.22" x2="1364.6116" y2="1930.0659">
				<stop  offset="0" style="stop-color:#FF9085"/>
				<stop  offset="1" style="stop-color:#FB6FBB"/>
			</linearGradient>
			<path style="opacity:0.3;fill:url(#SVGID_00000000912321952651898060000000007969619643245495_);" d="M1201.565,2275.507
				c-25.691,10.648-29.158,33.661-64.681,46.714c-33.886,12.452-45.256-3.151-79.054,7.187
				c-50.764,15.528-70.173,64.51-77.857,59.89c-7.04-4.233-0.289-51.091,32.341-81.45c37.473-34.866,77.833-18.899,101.812-55.098
				c9.33-14.085,16.523-36.584,8.385-53.901c-11.029-23.466-39.834-15.328-55.099-34.736
				c-27.425-34.869,36.754-97.761,19.165-150.923c-7.02-21.216-29.37-47.809-101.451-65.608c0.978,53.288,4.048,97.82,7.118,131.638
				c10.04,110.61,26.313,176.585-9.456,204.138c-22.93,17.664-46.352,3.44-80.04,30.587c-27.993,22.557-23.393,41.7-47.605,53.534
				c-36.548,17.863-76.377-11.421-85.284,1.47c-6.54,9.47,7.995,35.337,27.938,52.935c53.494,47.2,155.558,43.44,223.503,4.412
				c21.484-12.34,30.067-22.757,76.462-49.994c19.813-11.633,43.44-25.505,69.109-36.761c62.228-27.29,115.24-29.931,142.438-36.078
				C1255.311,2267.457,1222.417,2266.864,1201.565,2275.507z"/>
			<g>
				
					<linearGradient id="SVGID_00000147221936648984090730000017078940248063919518_" gradientUnits="userSpaceOnUse" x1="1123.3975" y1="2344.1704" x2="1431.8173" y2="2344.1704">
					<stop  offset="0" style="stop-color:#444B8C"/>
					<stop  offset="0.9964" style="stop-color:#26264F"/>
				</linearGradient>
				<path style="fill:url(#SVGID_00000147221936648984090730000017078940248063919518_);" d="M1424.264,2321.248l-282.175,13.731
					c-3.884,0.191-7.427,2.271-9.481,5.57l-7.808,12.532c-3.885,6.238,0.783,14.284,8.129,14.004l298.889-11.386L1424.264,2321.248z
					"/>
				
					<linearGradient id="SVGID_00000124147514088652552000000016847568736178291363_" gradientUnits="userSpaceOnUse" x1="1304.4948" y1="2261.9253" x2="1727.8247" y2="2261.9253">
					<stop  offset="0" style="stop-color:#444B8C"/>
					<stop  offset="0.9964" style="stop-color:#26264F"/>
				</linearGradient>
				<path style="fill:url(#SVGID_00000124147514088652552000000016847568736178291363_);" d="M1717.748,2164.114l-291.517,5.649
					c-8.626,0.167-16.525,4.866-20.787,12.365l-100.95,177.61l307.878-12.266c8.451-0.337,16.162-4.912,20.505-12.169
					l93.529-156.253C1730.389,2172.399,1725.499,2163.964,1717.748,2164.114z"/>
				
					<linearGradient id="SVGID_00000005251108158891524260000006280684967068679099_" gradientUnits="userSpaceOnUse" x1="111.2275" y1="2149.6172" x2="313.4364" y2="2350.2085" gradientTransform="matrix(-1 0 0 1 1740.2787 0)">
					<stop  offset="0" style="stop-color:#444B8C"/>
					<stop  offset="0.9964" style="stop-color:#26264F"/>
				</linearGradient>
				<path style="opacity:0.3;fill:url(#SVGID_00000005251108158891524260000006280684967068679099_);" d="M1405.443,2182.13
					c4.263-7.501,12.162-12.2,20.788-12.367l6.388-0.124c0.953,9.41,3.84,18.018,9.598,24.968
					c17.975,21.697,47.84,8.314,70.1,31.276c24.451,25.223,1.863,55.25,23.724,78.726c23.012,24.708,60.221,4.59,102.996,20.403
					l-6.16,10.29c-4.343,7.258-12.054,11.833-20.505,12.17l-307.878,12.266L1405.443,2182.13z"/>
			</g>
			<g>
				
					<linearGradient id="SVGID_00000066509676217879849910000016231128772098052511_" gradientUnits="userSpaceOnUse" x1="1122.3683" y1="2265.2766" x2="823.2564" y2="1970.9512">
					<stop  offset="0" style="stop-color:#FF9085"/>
					<stop  offset="1" style="stop-color:#FB6FBB"/>
				</linearGradient>
				<path style="fill:url(#SVGID_00000066509676217879849910000016231128772098052511_);" d="M1176.987,2311.819
					c3.674-9.699,7.346-19.395,11.019-29.097c-40.591-11.129-96.731-27.572-154.313-48.147
					c-14.228-5.084-19.436-11.656-23.242-16.704c-29.522-39.153,45.607-108.226,44.262-197.853
					c-0.932-62.128-38.598-133.196-71.787-134.002c-67.463-1.64-216.21,284.616-90.93,406.792
					C954.177,2353.448,1070.349,2360.485,1176.987,2311.819z"/>
			</g>
			
				<linearGradient id="SVGID_00000101801196156261652770000011808393586347938944_" gradientUnits="userSpaceOnUse" x1="1174.5408" y1="2299.854" x2="1276.7783" y2="2299.854">
				<stop  offset="0" style="stop-color:#FFC444"/>
				<stop  offset="0.9964" style="stop-color:#F36F56"/>
			</linearGradient>
			<path style="fill:url(#SVGID_00000101801196156261652770000011808393586347938944_);" d="M1188.006,2282.722
				c25.484-13.537,55.987,0.339,57.952,1.268c5.6,2.642,13.749,7.352,21.982,15.762c0.932,1.27,11.986,16.587,7.958,21.495
				c-3.228,3.932-15.728,0.673-30.752-8.671c-6.297-0.883-15.672-1.694-26.904-0.659c-20.625,1.903-30.073,8.418-37.56,2.794
				c-5.483-4.117-7.351-12.822-5.378-19.295C1177.423,2288.463,1183.693,2285.015,1188.006,2282.722z"/>
		</g>
		<g>
			
				<linearGradient id="SVGID_00000050653195290054136340000017498647312172865723_" gradientUnits="userSpaceOnUse" x1="3011.3674" y1="649.5443" x2="2776.2727" y2="875.5095">
				<stop  offset="0" style="stop-color:#FF9085"/>
				<stop  offset="1" style="stop-color:#FB6FBB"/>
			</linearGradient>
			<path style="fill:url(#SVGID_00000050653195290054136340000017498647312172865723_);" d="M2542.28,1706.138
				c-20.739,0.6-40.967-4.626-58.489-15.127c-53.383-32.001-132.263-84.848-203.229-154.026
				c-90.049-87.783-141.787-177.015-153.108-264.637l-0.177-1.373l-2.197-373.881c0-73.89,48.195-133.869,138.678-173.282
				c74.758-32.562,173.843-48.696,278.521-45.666c103.459,2.995,199.193,24.341,270.051,59.91
				c84.23,42.283,128.426,101.704,128.426,172.153l-2.004,357.246l-0.162,1.313c-10.345,83.907-57.948,170.638-142.085,258.343
				c-67.486,70.344-143.746,126.092-196.119,160.633C2583.061,1699.173,2562.972,1705.54,2542.28,1706.138z"/>
			
				<linearGradient id="SVGID_00000137112952071940484120000001252230120974583438_" gradientUnits="userSpaceOnUse" x1="2370.209" y1="1393.3291" x2="1968.5653" y2="2062.7341">
				<stop  offset="0" style="stop-color:#FF9085"/>
				<stop  offset="1" style="stop-color:#FB6FBB"/>
			</linearGradient>
			<path style="fill:url(#SVGID_00000137112952071940484120000001252230120974583438_);" d="M2956.024,910.196l-1.966,357.259
				l-0.175,1.298c-10.217,83.908-57.191,170.66-140.221,258.36c-63.16,66.74-134.113,120.35-185.371,155.142
				c-2.774,1.861-5.477,3.687-8.144,5.477c-17.098,11.445-36.934,17.8-57.332,18.396c-20.469,0.597-40.445-4.635-57.717-15.132
				c-52.698-31.983-130.532-84.821-200.537-154.019c-88.858-87.77-139.94-177.014-151.105-264.643l-0.175-1.369l-2.141-373.865
				c0-73.902,47.536-133.867,136.815-173.293c58.28-25.699,131.48-41.182,210.543-45.043c21.065-1.054,42.586-1.264,64.317-0.633
				c102.094,3.02,196.57,24.365,266.469,59.93C2912.421,780.331,2956.024,839.769,2956.024,910.196z"/>
			
				<linearGradient id="SVGID_00000090977049916660897110000005674963555166559396_" gradientUnits="userSpaceOnUse" x1="2736.3828" y1="1445.2175" x2="2087.3616" y2="140.1698">
				<stop  offset="0" style="stop-color:#FF9085"/>
				<stop  offset="1" style="stop-color:#FB6FBB"/>
			</linearGradient>
			<path style="fill:url(#SVGID_00000090977049916660897110000005674963555166559396_);" d="M2175.811,897.364l2.182,371.992
				c24.487,189.8,247.544,343.467,344.693,401.851c27.83,16.725,63.411,15.733,91.045-2.45
				c95.121-62.592,305.962-220.167,328.49-402.652l2.001-356.261C2944.221,645.527,2175.811,621.363,2175.811,897.364z"/>
			
				<linearGradient id="SVGID_00000056414565835197575090000009546543582868395440_" gradientUnits="userSpaceOnUse" x1="2249.4658" y1="1192.0404" x2="2876.1301" y2="1192.0404">
				<stop  offset="0" style="stop-color:#311944"/>
				<stop  offset="1" style="stop-color:#893976"/>
			</linearGradient>
			<path style="fill:url(#SVGID_00000056414565835197575090000009546543582868395440_);" d="M2568.324,1613.868
				c-1.781,0.041-4.476-0.254-7.198-1.905c-40-24.223-117.541-74.961-184.998-141.221
				c-72.864-71.573-114.888-141.16-124.524-206.517l-2.137-365.832c0.089-35.101,27.875-65.143,82.342-89.18
				c60.803-26.835,147.152-40.916,236.518-38.794c88.475,2.101,172.303,19.911,230.379,48.729
				c51.371,25.49,77.343,55.541,77.426,89.428l-1.992,353.166c-8.994,63.244-48.436,131.425-117.687,203.096
				c-65.114,67.389-141.176,120.809-180.933,146.786C2572.798,1613.401,2570.105,1613.826,2568.324,1613.868z"/>
			
				<linearGradient id="SVGID_00000149378573998832049470000016833684953332170639_" gradientUnits="userSpaceOnUse" x1="2264.7559" y1="1191.083" x2="2844.1836" y2="1191.083">
				<stop  offset="0" style="stop-color:#FF9085"/>
				<stop  offset="1" style="stop-color:#FB6FBB"/>
			</linearGradient>
			<path style="fill:url(#SVGID_00000149378573998832049470000016833684953332170639_);" d="M2559.197,1588.862
				c-40.397-24.88-112.23-72.923-174.903-134.602c-68.475-67.39-108.102-132.058-117.417-191.895l-2.121-363.708
				c0.063-25.097,23.132-48.119,68.392-68.157c57.599-25.504,140.124-38.943,226.047-37.015
				c85.099,1.911,165.311,18.719,220.433,45.992c42.829,21.19,64.496,44.306,64.555,68.783l-1.988,351.867
				c-8.74,58.056-46.117,121.548-111.478,189.069C2670.035,1511.886,2599.41,1562.296,2559.197,1588.862z"/>
			<g>
				<rect x="2486.596" y="960.014" style="fill:#FFFFFF;" width="133.41" height="382.677"/>
				<rect x="2388.293" y="1075.87" style="fill:#FFFFFF;" width="330.015" height="122.878"/>
			</g>
			<path style="opacity:0.2;fill:#FFFFFF;" d="M2628.291,1682.255c-2.774,1.861-5.477,3.687-8.144,5.477
				c-17.098,11.445-36.934,17.8-57.332,18.396c-20.469,0.597-40.445-4.635-57.717-15.132
				c-52.698-31.983-130.532-84.821-200.537-154.019c-88.858-87.77-139.94-177.014-151.105-264.643l-0.175-1.369l-2.141-373.865
				c0-73.902,47.536-133.867,136.815-173.293c58.28-25.699,131.48-41.182,210.543-45.043c4.599,6.881,9.549,14.394,14.64,22.434
				c12.744,20.152,26.576,43.569,39.707,69.057c3.933,7.619,7.829,15.412,11.585,23.382
				c35.319,74.465,61.194,161.883,39.181,234.241c-39.918,131.163-124.599,369.757-39.671,557.83
				c3.826,8.531,8.038,16.957,12.603,25.242c10.778,19.661,23.662,38.619,38.83,56.735
				C2619.514,1672.6,2623.798,1677.446,2628.291,1682.255z"/>
		</g>
		<g>
			<g>
				<g>
					
						<linearGradient id="SVGID_00000134969733470906446100000006900525401367062708_" gradientUnits="userSpaceOnUse" x1="2412.7747" y1="2078.9856" x2="2065.2273" y2="4132.6753">
						<stop  offset="0" style="stop-color:#AA80F9"/>
						<stop  offset="0.9964" style="stop-color:#6165D7"/>
					</linearGradient>
					<path style="fill:url(#SVGID_00000134969733470906446100000006900525401367062708_);" d="M2665.295,2813.785
						c-24.996-30.755-70.005-71.515-144.013-94.546c19.028-69.654,44.552-134.955,60.949-171.151l-44.763-20.292
						c-1.476,3.23-36.126,80.186-62.248,173.608c-0.631,2.143-1.227,4.32-1.79,6.461c-63.405-10.639-132.533-5.618-206.049,15.062
						c-117.682,33.106-203.944,12.288-256.429-61.897c-41.077-58.033-58.665-145.557-49.607-246.422
						c8.566-94.967,41.252-190.847,87.489-256.464l-40.164-28.297c-51.75,73.446-86.858,175.646-96.266,280.373
						c-10.112,112.451,10.637,211.631,58.418,279.214c34.23,48.344,94.336,97.881,197.026,97.845
						c33.037,0,70.463-5.126,112.837-17.026c40.198-11.306,76.535-16.958,109.15-18.468c26.297-1.193,50.169,0.281,71.831,3.651
						c-22.398,102.235-19.133,178.49,9.761,227.043c21.872,36.723,57.085,57.086,104.691,60.527
						c5.373,0.386,10.498,0.561,15.447,0.561c68.356,0,97.354-35.142,108.801-57.119
						C2725.33,2938.489,2711.568,2870.731,2665.295,2813.785z M2656.763,2963.732c-14.815,28.508-50.097,32.194-77.131,30.227
						c-31.035-2.211-52.592-14.184-65.934-36.582c-25.241-42.375-20.362-115.75-4.142-190.461
						c11.163,3.651,21.521,7.829,31.071,12.288l0.104,0.036c46.659,21.766,74.359,50.73,86.402,65.546
						C2660.521,2885.861,2672.423,2933.645,2656.763,2963.732z"/>
				</g>
				<g>
					
						<linearGradient id="SVGID_00000136378562889728333330000002719901798292748192_" gradientUnits="userSpaceOnUse" x1="3028.4902" y1="2150.6519" x2="2990.9824" y2="3019.2542" gradientTransform="matrix(0.971 0.2392 -0.2392 0.971 181.4531 -480.2562)">
						<stop  offset="0" style="stop-color:#444B8C"/>
						<stop  offset="0.9964" style="stop-color:#26264F"/>
					</linearGradient>
					<path style="fill:url(#SVGID_00000136378562889728333330000002719901798292748192_);" d="M2614.624,2389.715l0.668-2.714
						l-22.522-4.112l-21.727-6.787l-0.665,2.698l-70.012-12.773c0,0-5.206,143.919,12.181,177.535
						c3.173,0.781,6.193,1.525,9.088,2.238c2.612,0.643,5.112,1.259,7.505,1.849c23.926,5.893,37.232,9.171,44.249,10.899
						c5.059,1.246,6.876,1.694,6.965,1.716c2.657,0.655,5.41,1.333,8.3,2.044c31.01-21.695,93.575-151.486,93.575-151.486
						L2614.624,2389.715z"/>
					<path style="fill:#FFFFFF;" d="M2988.16,1681.946c-4.319-2.562-8.658-5.158-13.115-7.845l-30.636-18.495l-23.523,39.026
						l30.677,18.505c4.554,2.749,9.066,5.421,13.485,8.042c56.737,33.632,69.751,45.864,57.045,79.819l-128.868,329.05
						c-12.639,32.273-37.74,58.229-68.8,73.541c-42.346,20.883-83.476,26.628-133.257,14.366l-110.623-27.248
						c-45.389-11.18-82.503-36.197-110.306-74.358c-20.395-27.986-29.536-62.376-25.74-96.827l38.7-351.26
						c4.518-35.972,21.722-40.761,87.588-44.194c5.131-0.269,10.363-0.541,15.675-0.86l35.754-2.142l-2.723-45.49l-35.754,2.142
						c-5.195,0.31-10.309,0.578-15.323,0.841c-56.563,2.946-120.674,6.288-130.473,84.37l-38.741,351.601
						c-5.044,45.774,7.559,91.578,34.658,128.77c32.685,44.858,76.181,75.549,131.191,90.399l-0.029,0.119l121.685,29.972
						l0.029-0.119c50.082,11.038,108.512,5.451,158.295-19.096c41.273-20.351,73.546-55.101,90.338-97.982l129.136-329.336
						C3092.092,1743.557,3036.884,1710.825,2988.16,1681.946z"/>
					
						<linearGradient id="SVGID_00000100343341004611024160000013573131921042044550_" gradientUnits="userSpaceOnUse" x1="2845.4895" y1="1429.5615" x2="2933.3301" y2="1429.5615" gradientTransform="matrix(0.971 0.2392 -0.2392 0.971 181.4531 -480.2562)">
						<stop  offset="0" style="stop-color:#444B8C"/>
						<stop  offset="0.9964" style="stop-color:#26264F"/>
					</linearGradient>
					<path style="fill:url(#SVGID_00000100343341004611024160000013573131921042044550_);" d="M2692.432,1575.49
						c0.911-4.782-0.539-9.709-3.889-13.239c-3.35-3.529-8.197-5.23-13.02-4.57l-60.421,8.271
						c-5.383,0.737-9.406,5.334-9.404,10.769c0.006,13.083,1.158,36.18,1.775,47.675c0.226,4.209,2.867,7.911,6.773,9.497
						l45.167,18.361c4.2,1.708,8.944,1.441,12.924-0.727c3.982-2.166,6.784-6.005,7.629-10.459L2692.432,1575.49z"/>
					
						<linearGradient id="SVGID_00000054949753170023255910000003289834505220527787_" gradientUnits="userSpaceOnUse" x1="-4545.7031" y1="1429.9078" x2="-4457.8657" y2="1429.9078" gradientTransform="matrix(-0.971 -0.2392 -0.2392 0.971 -1118.5851 -800.8764)">
						<stop  offset="0" style="stop-color:#444B8C"/>
						<stop  offset="0.9964" style="stop-color:#26264F"/>
					</linearGradient>
					<path style="fill:url(#SVGID_00000054949753170023255910000003289834505220527787_);" d="M2879.629,1621.599
						c1.414-4.658,4.987-8.348,9.593-9.918c4.606-1.57,9.688-0.825,13.653,1.999l49.667,35.387
						c4.426,3.153,5.853,9.093,3.327,13.905c-6.082,11.583-17.829,31.504-23.715,41.396c-2.156,3.623-6.213,5.674-10.409,5.265
						l-48.528-4.717c-4.512-0.438-8.59-2.878-11.108-6.646c-2.521-3.768-3.219-8.469-1.899-12.806L2879.629,1621.599z"/>
					
						<linearGradient id="SVGID_00000022524845068014093780000000986306136971472310_" gradientUnits="userSpaceOnUse" x1="3031.6775" y1="1780.2754" x2="2959.5273" y2="3451.1191" gradientTransform="matrix(0.971 0.2392 -0.2392 0.971 181.4531 -480.2562)">
						<stop  offset="0" style="stop-color:#444B8C"/>
						<stop  offset="0.9964" style="stop-color:#26264F"/>
					</linearGradient>
					<path style="fill:url(#SVGID_00000022524845068014093780000000986306136971472310_);" d="M2949.003,2161.804
						c1.037-3.653,1.394-7.363-0.512-10.649c-1.909-3.286-5.259-5.709-8.944-6.622l-50.792-12.555
						c-7.22-1.784-15.275,2.427-17.464,9.535c-15.166,49.255-75.255,226.331-208.231,191.223h-0.007l-110.662-26.51l0,0
						c-128.632-31.683-103.712-215.442-94.266-266.106c1.363-7.312-3.095-14.677-10.319-16.451l-50.471-12.538
						c-3.688-0.904-7.563-0.336-10.779,1.688c-3.215,2.026-5.212,5.293-5.991,9.01c-23.629,112.656-22.283,312.958,148.175,359.282
						l-0.502,2.042l121.685,29.975l0.501-2.032C2822.877,2449.319,2917.601,2272.571,2949.003,2161.804z"/>
				</g>
				
					<linearGradient id="SVGID_00000074437166779230388040000015891072494310129043_" gradientUnits="userSpaceOnUse" x1="1981.7172" y1="2197.116" x2="1979.7651" y2="2241.5237">
					<stop  offset="0" style="stop-color:#444B8C"/>
					<stop  offset="0.9964" style="stop-color:#26264F"/>
				</linearGradient>
				<path style="fill:url(#SVGID_00000074437166779230388040000015891072494310129043_);" d="M1956.026,2202.479
					c0,0-25.691,50.386-17.015,56.53c8.677,6.144,50.367,22.381,58.705,11.849c8.338-10.532,25.015-50.907,25.015-50.907
					L1956.026,2202.479z"/>
				<g>
					<g>
						
							<linearGradient id="SVGID_00000163778394529059764960000002549361719217687716_" gradientUnits="userSpaceOnUse" x1="2019.701" y1="1859.0177" x2="2010.2729" y2="2073.5061">
							<stop  offset="0" style="stop-color:#444B8C"/>
							<stop  offset="0.9964" style="stop-color:#26264F"/>
						</linearGradient>
						<path style="fill:url(#SVGID_00000163778394529059764960000002549361719217687716_);" d="M2179.787,2059.859
							c0,54.136-25.488,103.508-65.125,134.402c-26.472,20.679-59.228,33.151-94.968,36.662h-0.141c-2.878,0-5.792-0.58-8.705-0.58
							c-93.317,0-168.94-76.052-168.94-169.334c0-78.923,54.066-145.368,127.196-163.906c13.34-3.441,27.349-6.084,41.744-6.084
							c2.912,0,5.827-0.644,8.705-0.644h0.141C2108.87,1897.397,2179.787,1969.491,2179.787,2059.859z"/>
						<g>
							
								<linearGradient id="SVGID_00000075880555939348659040000010338721167933853110_" gradientUnits="userSpaceOnUse" x1="2006.8943" y1="1970.6639" x2="2101.1746" y2="2366.4238">
								<stop  offset="0" style="stop-color:#444B8C"/>
								<stop  offset="0.9964" style="stop-color:#26264F"/>
							</linearGradient>
							<path style="fill:url(#SVGID_00000075880555939348659040000010338721167933853110_);" d="M2197.341,2060.614
								c0,61.474-32.861,115.26-81.941,144.82c-25.417,15.307-55.155,24.909-86.997,24.909c-2.914,0-5.828,0.58-8.708,0.58h-0.141
								c-89.208-7.021-160.091-79.186-160.091-169.519c0-71.796,44.763-134.244,107.887-158.715
								c16.325-6.319,33.879-8.803,52.204-12.314h0.141c2.88,0,5.794,0.545,8.708,0.545
								C2121.684,1890.92,2197.341,1967.297,2197.341,2060.614z"/>
							<circle style="fill:#FFFFFF;" cx="2028.394" cy="2060.607" r="131.159"/>
							
								<linearGradient id="SVGID_00000087374796767702646290000005285342643756824505_" gradientUnits="userSpaceOnUse" x1="1991.926" y1="1381.6002" x2="2097.6968" y2="3350.9585">
								<stop  offset="0" style="stop-color:#AA80F9"/>
								<stop  offset="0.9964" style="stop-color:#6165D7"/>
							</linearGradient>
							
								<circle style="fill:url(#SVGID_00000087374796767702646290000005285342643756824505_);" cx="2028.394" cy="2060.607" r="105.979"/>
							<circle style="fill:#FFFFFF;" cx="2028.394" cy="2060.607" r="19.306"/>
						</g>
					</g>
					
						<linearGradient id="SVGID_00000106836843371003660030000000337704956048719036_" gradientUnits="userSpaceOnUse" x1="1990.2509" y1="1867.4982" x2="1981.0704" y2="2076.3496">
						<stop  offset="0" style="stop-color:#AA80F9"/>
						<stop  offset="0.9964" style="stop-color:#6165D7"/>
					</linearGradient>
					<path style="opacity:0.3;fill:url(#SVGID_00000106836843371003660030000000337704956048719036_);" d="M2115.399,2205.434
						c-25.417,15.307-55.155,24.909-86.997,24.909c-2.914,0-5.828,0.58-8.708,0.58h-0.141c-2.878,0-5.792-0.58-8.705-0.58
						c-93.317,0-168.94-76.052-168.94-169.334c0-78.923,54.066-145.368,127.196-163.906c-0.633,1.966-1.195,3.904-1.755,6.045
						c-3.477,13.095-6.389,28.74-6.706,45.205c-0.245,9.514,0.422,19.25,2.352,28.939c4.389,22.048,15.272,43.591,37.355,60.549
						c4.423,3.37,8.811,6.84,13.2,10.421c9.936,8.005,19.767,16.462,29.141,25.31c21.766,20.503,41.252,43.146,54.558,67.546
						c4.248,7.759,7.829,15.657,10.673,23.767c3.37,9.444,5.686,19.098,6.74,28.964
						C2115.118,2197.676,2115.363,2201.537,2115.399,2205.434z"/>
				</g>
			</g>
			
				<linearGradient id="SVGID_00000125578993566217239110000017845533933304454558_" gradientUnits="userSpaceOnUse" x1="2527.887" y1="2714.0969" x2="2526.25" y2="2751.3364">
				<stop  offset="0" style="stop-color:#AA80F9"/>
				<stop  offset="0.9964" style="stop-color:#6165D7"/>
			</linearGradient>
			<path style="opacity:0.4;fill:url(#SVGID_00000125578993566217239110000017845533933304454558_);" d="M2521.285,2719.251
				l-11.729,47.658l31.162,12.327c0,0,2.928-20.02-3.216-25.026C2531.358,2749.204,2520.079,2723.626,2521.285,2719.251z"/>
			
				<linearGradient id="SVGID_00000163757844702959254440000018079785845774559141_" gradientUnits="userSpaceOnUse" x1="2432.8723" y1="2701.6545" x2="2431.5413" y2="2731.9392">
				<stop  offset="0" style="stop-color:#AA80F9"/>
				<stop  offset="0.9964" style="stop-color:#6165D7"/>
			</linearGradient>
			<path style="opacity:0.4;fill:url(#SVGID_00000163757844702959254440000018079785845774559141_);" d="M2473.43,2707.865
				l-11.762,47.571c-21.661-3.37-45.534-4.844-71.831-3.651c13.903-18.046,47.747-17.905,48.484-28.928
				C2439.2,2709.725,2473.43,2707.865,2473.43,2707.865z"/>
		</g>
	</g>
</g>
</svg>
